<?xml version="1.0" encoding="utf-8"?>
<!-- Generator: Adobe Illustrator 20.1.0, SVG Export Plug-In . SVG Version: 6.00 Build 0)  -->
<svg version="1.1" id="Layer_1" xmlns="http://www.w3.org/2000/svg" xmlns:xlink="http://www.w3.org/1999/xlink" x="0px" y="0px"
	 viewBox="0 0 332.8 58.4" style="enable-background:new 0 0 332.8 58.4;" xml:space="preserve">
<style type="text/css">
	.st0{fill:#C6093B;}
	.st1{fill:#FFFFFF;}
	.st2{fill:none;}
	.st3{fill:url(#SVGID_1_);}
	.st4{fill:url(#SVGID_2_);}
	.st5{fill:url(#SVGID_3_);}
	.st6{fill:url(#SVGID_4_);}
	.st7{fill:url(#SVGID_5_);}
	.st8{fill:url(#SVGID_6_);}
	.st9{fill:url(#SVGID_7_);}
	.st10{fill:url(#SVGID_8_);}
	.st11{fill:url(#SVGID_9_);}
</style>
<g>
	<g>
		<path class="st0" d="M42.4,44.3c2.7,0,4.4-2.2,3.8-4.8L45.6,37l-2.4-9.9"/>
		<path class="st0" d="M43.1,27.1V12.8c0-0.8-0.1-1.5-0.4-2.1c-0.1-0.2-0.2-0.5-0.3-0.7c-0.2-0.4-0.4-0.7-0.7-1
			c-0.5-0.5-1-0.9-1.6-1.2s-1.3-0.4-1.9-0.4H11.9c-0.7,0-1.3,0.2-1.9,0.4C9.3,7.9,8.8,8.4,8.3,8.9C8,9.2,7.8,9.6,7.6,9.9
			c-0.1,0.2-0.3,0.5-0.4,0.7C7,11.3,6.9,12,6.9,12.8v14.4C18.9,27.1,31,27.1,43.1,27.1z"/>
		<path class="st1" d="M6.9,27.1L6.9,27.1L6.9,27.1L6.9,27.1v14.4c0,0.8,0.1,1.5,0.4,2.2c0.1,0.2,0.2,0.5,0.3,0.7
			c0.2,0.4,0.4,0.7,0.7,1c0.5,0.5,1,0.9,1.6,1.2s1.3,0.4,1.9,0.4H38c0.7,0,1.3-0.2,1.9-0.4c0.6-0.3,1.1-0.7,1.6-1.2
			c0.3-0.3,0.5-0.7,0.7-1c0.1-0.2,0.3-0.5,0.3-0.7c0.3-0.7,0.4-1.4,0.4-2.2V27.1l0,0l0,0l0,0l0,0H6.9z"/>
		<line class="st2" x1="42.2" y1="37.1" x2="45.5" y2="37.1"/>
		<line class="st2" x1="7.1" y1="27.1" x2="43.1" y2="27.1"/>
		<path class="st0" d="M43.1,27.1L43.1,27.1L43.1,27.1l5.3-7.2c1.1-1.5-0.2-2.7-2.8-2.8"/>
		<path class="st1" d="M43.1,27.1l2.4-9.9l0.6-2.5c0.6-2.6-1.1-4.7-3.8-4.8"/>
		<path class="st1" d="M45.5,37.1c2.7,0,3.9-1.3,2.8-2.8L43,27.1l0,0l0,0"/>
		
			<linearGradient id="SVGID_1_" gradientUnits="userSpaceOnUse" x1="-428.7916" y1="593.1008" x2="-428.7916" y2="593.1008" gradientTransform="matrix(-1 0 0 1 -385.7241 -566)">
			<stop  offset="0" style="stop-color:#C1633F"/>
			<stop  offset="1" style="stop-color:#942B24"/>
		</linearGradient>
		<path class="st3" d="M43.1,27.1L43.1,27.1L43.1,27.1z"/>
		
			<linearGradient id="SVGID_2_" gradientUnits="userSpaceOnUse" x1="-428.7916" y1="593.1008" x2="-428.7916" y2="593.1008" gradientTransform="matrix(-1 0 0 1 -385.7241 -566)">
			<stop  offset="0" style="stop-color:#C1633F"/>
			<stop  offset="1" style="stop-color:#942B24"/>
		</linearGradient>
		<path class="st4" d="M43.1,27.1L43.1,27.1L43.1,27.1z"/>
		
			<linearGradient id="SVGID_3_" gradientUnits="userSpaceOnUse" x1="-428.7916" y1="593.1008" x2="-428.7916" y2="593.1008" gradientTransform="matrix(-1 0 0 1 -385.7241 -566)">
			<stop  offset="0" style="stop-color:#C1633F"/>
			<stop  offset="1" style="stop-color:#942B24"/>
		</linearGradient>
		<polygon class="st5" points="43.1,27.1 43.1,27.1 43.1,27.1 43.1,27.1 		"/>
		
			<linearGradient id="SVGID_4_" gradientUnits="userSpaceOnUse" x1="-428.7916" y1="593.1008" x2="-428.7916" y2="593.1008" gradientTransform="matrix(-1 0 0 1 -385.7241 -566)">
			<stop  offset="0" style="stop-color:#C1633F"/>
			<stop  offset="1" style="stop-color:#942B24"/>
		</linearGradient>
		<circle class="st6" cx="43.1" cy="27.1" r="0"/>
		
			<linearGradient id="SVGID_5_" gradientUnits="userSpaceOnUse" x1="-428.7916" y1="593.1008" x2="-428.7916" y2="593.1008" gradientTransform="matrix(-1 0 0 1 -385.7241 -566)">
			<stop  offset="0" style="stop-color:#C1633F"/>
			<stop  offset="1" style="stop-color:#942B24"/>
		</linearGradient>
		<path class="st7" d="M43.1,27.1L43.1,27.1L43.1,27.1z"/>
		
			<linearGradient id="SVGID_6_" gradientUnits="userSpaceOnUse" x1="-428.7916" y1="593.1008" x2="-428.7916" y2="593.1008" gradientTransform="matrix(-1 0 0 1 -385.7241 -566)">
			<stop  offset="0" style="stop-color:#C1633F"/>
			<stop  offset="1" style="stop-color:#942B24"/>
		</linearGradient>
		<path class="st8" d="M43.1,27.1L43.1,27.1L43.1,27.1z"/>
		<path class="st1" d="M43.1,27.1l-2.4-9.9l-0.6-2.5c-0.6-2.6-3.4-4.8-6.2-4.8H16.3H9.9h-2c0,0,0,0-0.1,0c-2.7,0-4.4,2.2-3.8,4.8
			l3.5,12.5"/>
		
			<linearGradient id="SVGID_7_" gradientUnits="userSpaceOnUse" x1="-428.7916" y1="593.1008" x2="-428.7916" y2="593.1008" gradientTransform="matrix(-1 0 0 1 -385.7241 -566)">
			<stop  offset="0" style="stop-color:#C1633F"/>
			<stop  offset="1" style="stop-color:#942B24"/>
		</linearGradient>
		<path class="st9" d="M43.1,27.1L43.1,27.1L43.1,27.1z"/>
		<path class="st0" d="M43.1,27.1L40.7,37l-0.6,2.5c-0.6,2.6-3.4,4.8-6.2,4.8h-26c0,0,0,0-0.1,0c-2.7,0-4.4-2.2-3.8-4.8L4.6,37
			c0.1,0,0.1,0,0.1,0l2.7-9.9"/>
		
			<linearGradient id="SVGID_8_" gradientUnits="userSpaceOnUse" x1="-428.7916" y1="593.1008" x2="-428.7916" y2="593.1008" gradientTransform="matrix(-1 0 0 1 -385.7241 -566)">
			<stop  offset="0" style="stop-color:#C1633F"/>
			<stop  offset="1" style="stop-color:#942B24"/>
		</linearGradient>
		<circle class="st10" cx="43.1" cy="27.1" r="0"/>
		
			<linearGradient id="SVGID_9_" gradientUnits="userSpaceOnUse" x1="-428.7916" y1="593.1008" x2="-428.7916" y2="593.1008" gradientTransform="matrix(-1 0 0 1 -385.7241 -566)">
			<stop  offset="0" style="stop-color:#C1633F"/>
			<stop  offset="1" style="stop-color:#942B24"/>
		</linearGradient>
		<path class="st11" d="M43.1,27.1L43.1,27.1L43.1,27.1z"/>
		<path class="st0" d="M43.1,27.1L43.1,27.1l-5.3-7.2c-1.1-1.5-4.3-2.8-7-2.8h-26c-0.1,0-0.1,0-0.1,0c-2.7,0-3.9,1.3-2.8,2.8
			l5.3,7.2l0,0"/>
		<path class="st1" d="M7.1,27.1l-5.3,7.2C0.7,35.8,2,37,4.6,37.1c0.1,0,0.1,0,0.1,0h26c2.8,0,5.9-1.2,7-2.8l5.3-7.2"/>
	</g>
	<g>
		<g>
			<path class="st1" d="M86.7,36c0,1.3-0.2,2.5-0.5,3.6c-0.4,1.1-0.9,2-1.5,2.9c-0.6,0.8-1.4,1.5-2.3,2.1s-1.9,1.1-3,1.5
				s-2.2,0.7-3.5,0.9c-1.2,0.2-2.6,0.3-4.1,0.3h-10c-0.6,0-1.2-0.2-1.6-0.6c-0.4-0.4-0.7-1-0.7-1.8V12.1c0-0.8,0.2-1.5,0.7-1.8
				c0.4-0.4,1-0.6,1.6-0.6h9.4c2.3,0,4.2,0.2,5.8,0.6c1.6,0.4,2.9,1,4,1.8s1.9,1.8,2.5,3s0.9,2.6,0.9,4.2c0,0.9-0.1,1.8-0.3,2.6
				c-0.2,0.8-0.6,1.5-1,2.2s-1,1.2-1.6,1.7s-1.4,0.9-2.2,1.2c1.1,0.2,2,0.5,2.9,1s1.7,1.1,2.3,1.9c0.7,0.8,1.2,1.7,1.6,2.7
				C86.5,33.5,86.7,34.7,86.7,36z M76.9,20.2c0-0.8-0.1-1.4-0.3-2c-0.2-0.6-0.6-1.1-1-1.5c-0.5-0.4-1-0.7-1.8-0.9
				c-0.7-0.2-1.6-0.3-2.8-0.3h-3.8v9.7h4.3c1.1,0,2-0.1,2.6-0.4c0.7-0.3,1.2-0.6,1.6-1.1s0.8-1,1-1.6C76.8,21.5,76.9,20.9,76.9,20.2
				z M78.8,36.2c0-0.9-0.1-1.6-0.4-2.3c-0.3-0.7-0.7-1.3-1.3-1.7c-0.6-0.5-1.3-0.8-2.1-1.1c-0.9-0.2-2-0.4-3.4-0.4h-4.5v10.7h5.5
				c1.1,0,2-0.1,2.7-0.3s1.4-0.6,1.9-1s0.9-1,1.2-1.6C78.7,37.8,78.8,37,78.8,36.2z"/>
			<path class="st1" d="M97.9,11.6c0,1.5-0.3,2.5-0.9,3c-0.6,0.6-1.7,0.8-3.3,0.8c-1.6,0-2.7-0.3-3.3-0.8c-0.6-0.5-0.9-1.5-0.9-2.9
				c0-1.5,0.3-2.5,0.9-3.1C91,8,92.1,7.7,93.7,7.7c1.6,0,2.7,0.3,3.3,0.8C97.6,9.3,97.9,10.2,97.9,11.6z M97.3,46.2
				c0,0.2-0.1,0.4-0.2,0.5s-0.3,0.3-0.6,0.4c-0.3,0.1-0.7,0.2-1.1,0.2c-0.5,0-1.1,0.1-1.8,0.1c-0.7,0-1.3,0-1.8-0.1
				c-0.5,0-0.8-0.1-1.1-0.2c-0.3-0.1-0.5-0.2-0.6-0.4c-0.1-0.1-0.2-0.3-0.2-0.5V20.4c0-0.2,0.1-0.4,0.2-0.5s0.3-0.3,0.6-0.4
				c0.3-0.1,0.7-0.2,1.1-0.2c0.5-0.1,1.1-0.1,1.8-0.1c0.7,0,1.3,0,1.8,0.1s0.8,0.1,1.1,0.2c0.3,0.1,0.5,0.2,0.6,0.4
				c0.1,0.1,0.2,0.3,0.2,0.5V46.2z"/>
			<path class="st1" d="M143.3,46.2c0,0.2-0.1,0.4-0.2,0.5c-0.1,0.1-0.3,0.3-0.6,0.4c-0.3,0.1-0.6,0.2-1.1,0.2s-1.1,0.1-1.8,0.1
				s-1.3,0-1.8-0.1c-0.5,0-0.8-0.1-1.1-0.2c-0.3-0.1-0.5-0.2-0.6-0.4c-0.1-0.1-0.2-0.3-0.2-0.5V30.9c0-0.9-0.1-1.7-0.2-2.4
				c-0.2-0.7-0.4-1.3-0.8-1.8c-0.3-0.5-0.8-0.9-1.3-1.2c-0.5-0.3-1.1-0.4-1.8-0.4c-0.9,0-1.7,0.3-2.6,1c-0.9,0.7-1.9,1.7-2.9,3v17.2
				c0,0.2-0.1,0.4-0.2,0.5s-0.3,0.3-0.6,0.4c-0.3,0.1-0.7,0.2-1.1,0.2c-0.5,0-1,0.1-1.7,0.1s-1.3,0-1.8-0.1c-0.5,0-0.8-0.1-1.1-0.2
				c-0.3-0.1-0.5-0.2-0.6-0.4c-0.1-0.1-0.2-0.3-0.2-0.5V30.9c0-0.9-0.1-1.7-0.2-2.4c-0.2-0.7-0.4-1.3-0.7-1.8
				c-0.3-0.5-0.8-0.9-1.3-1.2c-0.5-0.3-1.1-0.4-1.8-0.4c-0.9,0-1.8,0.3-2.7,1c-0.9,0.7-1.8,1.7-2.9,3v17.2c0,0.2-0.1,0.4-0.2,0.5
				s-0.3,0.3-0.6,0.4c-0.3,0.1-0.7,0.2-1.1,0.2c-0.5,0-1.1,0.1-1.8,0.1c-0.7,0-1.3,0-1.8-0.1c-0.5,0-0.8-0.1-1.1-0.2
				c-0.3-0.1-0.5-0.2-0.6-0.4c-0.1-0.1-0.2-0.3-0.2-0.5V20.4c0-0.2,0-0.4,0.1-0.5s0.3-0.3,0.5-0.4c0.3-0.1,0.6-0.2,1-0.2
				s0.9-0.1,1.5-0.1s1.1,0,1.5,0.1c0.4,0,0.7,0.1,0.9,0.2c0.2,0.1,0.4,0.2,0.5,0.4c0.1,0.1,0.1,0.3,0.1,0.5v3
				c1.4-1.5,2.9-2.7,4.3-3.5c1.4-0.8,2.9-1.2,4.4-1.2c1.1,0,2,0.1,2.9,0.3c0.8,0.2,1.6,0.5,2.3,1c0.7,0.4,1.2,0.9,1.7,1.5
				s0.9,1.2,1.2,1.9c0.8-0.8,1.5-1.5,2.3-2.1c0.7-0.6,1.5-1.1,2.2-1.5s1.4-0.7,2.2-0.8c0.7-0.2,1.5-0.3,2.2-0.3
				c1.7,0,3.2,0.3,4.3,0.9c1.2,0.6,2.1,1.4,2.9,2.4c0.7,1,1.2,2.2,1.5,3.5s0.5,2.7,0.5,4.2v16.5H143.3z"/>
			<path class="st1" d="M155.3,46.2c0,0.2-0.1,0.4-0.2,0.5c-0.1,0.1-0.3,0.3-0.6,0.4c-0.3,0.1-0.7,0.2-1.1,0.2
				c-0.5,0-1.1,0.1-1.8,0.1s-1.3,0-1.8-0.1c-0.5,0-0.8-0.1-1.1-0.2c-0.3-0.1-0.5-0.2-0.6-0.4c-0.1-0.1-0.2-0.3-0.2-0.5V8.1
				c0-0.2,0.1-0.4,0.2-0.5c0.1-0.2,0.3-0.3,0.6-0.4c0.3-0.1,0.7-0.2,1.1-0.2c0.5-0.1,1.1-0.1,1.8-0.1s1.3,0,1.8,0.1s0.8,0.1,1.1,0.2
				s0.5,0.2,0.6,0.4c0.1,0.2,0.2,0.3,0.2,0.5V46.2z"/>
		</g>
	</g>
	<g>
		<path class="st1" d="M183.6,45.8c0,0.3,0,0.5-0.1,0.7s-0.1,0.4-0.2,0.5c-0.1,0.1-0.2,0.2-0.3,0.3s-0.2,0.1-0.4,0.1h-17.8
			c-0.4,0-0.7-0.1-1.1-0.4c-0.4-0.3-0.6-0.7-0.6-1.5V11.2c0-0.7,0.2-1.2,0.6-1.5s0.7-0.4,1.1-0.4h17.5c0.1,0,0.3,0,0.4,0.1
			c0.1,0.1,0.2,0.2,0.3,0.3s0.1,0.3,0.2,0.5c0,0.2,0.1,0.4,0.1,0.7s0,0.5-0.1,0.7c0,0.2-0.1,0.4-0.2,0.5c-0.1,0.1-0.2,0.2-0.3,0.3
			c-0.1,0.1-0.2,0.1-0.4,0.1h-15.6v13.3h13.5c0.2,0,0.3,0,0.4,0.1s0.2,0.2,0.3,0.3c0.1,0.1,0.1,0.3,0.2,0.5c0,0.2,0.1,0.4,0.1,0.7
			c0,0.3,0,0.5-0.1,0.7c0,0.2-0.1,0.3-0.2,0.5c-0.1,0.1-0.2,0.2-0.3,0.3s-0.2,0.1-0.4,0.1h-13.4v15.1h15.8c0.1,0,0.3,0,0.4,0.1
			s0.2,0.2,0.3,0.3s0.2,0.3,0.2,0.5S183.6,45.5,183.6,45.8z"/>
		<path class="st1" d="M209.7,46.2c0.2,0.2,0.2,0.4,0.2,0.6c0,0.2-0.1,0.3-0.2,0.4c-0.1,0.1-0.3,0.2-0.6,0.2s-0.6,0.1-1.1,0.1
			c-0.4,0-0.7,0-1,0c-0.2,0-0.4-0.1-0.6-0.1c-0.1-0.1-0.3-0.1-0.4-0.2c-0.1-0.1-0.2-0.2-0.2-0.3l-7.2-11.1l-7.1,11.1
			c-0.1,0.1-0.2,0.2-0.3,0.3s-0.2,0.2-0.4,0.2c-0.2,0.1-0.4,0.1-0.6,0.1c-0.2,0-0.6,0-1,0s-0.8,0-1-0.1c-0.3,0-0.5-0.1-0.6-0.2
			s-0.2-0.2-0.2-0.4s0.1-0.4,0.3-0.6l8.7-12.9l-8.3-12.6c-0.2-0.2-0.2-0.4-0.3-0.6s0.1-0.3,0.2-0.4c0.1-0.1,0.4-0.2,0.7-0.2
			s0.7-0.1,1.1-0.1c0.4,0,0.7,0,1,0c0.2,0,0.4,0.1,0.6,0.1c0.1,0.1,0.2,0.1,0.3,0.2c0.1,0.1,0.2,0.2,0.2,0.3l6.7,10.4l6.9-10.4
			c0.1-0.1,0.2-0.2,0.2-0.3s0.2-0.2,0.3-0.2s0.3-0.1,0.5-0.1s0.5,0,0.9,0s0.8,0,1,0.1c0.3,0,0.5,0.1,0.6,0.2
			c0.1,0.1,0.2,0.2,0.2,0.4c0,0.2-0.1,0.4-0.3,0.6l-8.4,12.5L209.7,46.2z"/>
		<path class="st1" d="M238.7,33.1c0,2.3-0.2,4.3-0.7,6.1s-1.2,3.4-2.2,4.6c-1,1.3-2.2,2.3-3.6,2.9c-1.4,0.7-3.1,1-4.9,1
			c-0.8,0-1.5-0.1-2.2-0.2c-0.7-0.2-1.4-0.4-2-0.8c-0.7-0.4-1.3-0.8-2-1.3s-1.3-1.2-2.1-1.9v13.7c0,0.1,0,0.2-0.1,0.3
			s-0.2,0.2-0.3,0.3s-0.3,0.1-0.5,0.1s-0.5,0-0.9,0c-0.3,0-0.6,0-0.8,0s-0.4-0.1-0.5-0.1c-0.1-0.1-0.2-0.2-0.3-0.3s-0.1-0.2-0.1-0.3
			v-37c0-0.1,0-0.3,0.1-0.4c0-0.1,0.1-0.2,0.3-0.2c0.1-0.1,0.3-0.1,0.5-0.1s0.5,0,0.7,0s0.5,0,0.7,0s0.4,0.1,0.5,0.1
			c0.1,0.1,0.2,0.1,0.3,0.2c0.1,0.1,0.1,0.2,0.1,0.4V24c0.8-0.8,1.6-1.6,2.3-2.2s1.5-1.1,2.2-1.5s1.5-0.7,2.3-0.9
			c0.8-0.2,1.6-0.3,2.5-0.3c1.9,0,3.5,0.4,4.9,1.1c1.3,0.7,2.4,1.7,3.3,3c0.9,1.3,1.5,2.8,1.8,4.4C238.5,29.4,238.7,31.2,238.7,33.1
			z M235,33.6c0-1.5-0.1-2.9-0.4-4.3c-0.2-1.4-0.6-2.6-1.2-3.7c-0.6-1.1-1.3-1.9-2.2-2.6s-2.1-1-3.5-1c-0.7,0-1.4,0.1-2.1,0.3
			c-0.7,0.2-1.4,0.5-2.1,1c-0.7,0.4-1.4,1-2.2,1.7s-1.6,1.6-2.4,2.7v11.6c1.5,1.8,2.9,3.1,4.2,4.1s2.7,1.4,4.2,1.4
			c1.3,0,2.5-0.3,3.5-1s1.8-1.5,2.4-2.6c0.6-1.1,1.1-2.3,1.3-3.6C234.9,36.3,235,35,235,33.6z"/>
		<path class="st1" d="M260.7,21.6c0,0.3,0,0.5,0,0.7s-0.1,0.4-0.1,0.5s-0.1,0.2-0.2,0.3c-0.1,0.1-0.2,0.1-0.3,0.1
			c-0.2,0-0.4,0-0.6-0.1s-0.5-0.2-0.8-0.3c-0.3-0.1-0.7-0.2-1-0.3c-0.4-0.1-0.8-0.1-1.2-0.1c-0.5,0-1,0.1-1.6,0.3
			c-0.5,0.2-1,0.6-1.6,1.1s-1.1,1.2-1.8,2c-0.6,0.8-1.3,1.8-2,3v18c0,0.1,0,0.2-0.1,0.3s-0.2,0.2-0.3,0.2c-0.1,0.1-0.3,0.1-0.5,0.1
			s-0.5,0.1-0.9,0.1c-0.3,0-0.6,0-0.8-0.1s-0.4-0.1-0.5-0.1s-0.2-0.1-0.3-0.2c0-0.1-0.1-0.2-0.1-0.3V20.2c0-0.1,0-0.2,0.1-0.3
			c0-0.1,0.1-0.2,0.3-0.2s0.3-0.1,0.5-0.1s0.5,0,0.8,0s0.6,0,0.8,0s0.4,0.1,0.5,0.1s0.2,0.2,0.2,0.2c0,0.1,0.1,0.2,0.1,0.3v4.2
			c0.8-1.1,1.5-2,2.1-2.7s1.3-1.2,1.8-1.6c0.6-0.4,1.2-0.6,1.7-0.8c0.6-0.1,1.1-0.2,1.7-0.2c0.3,0,0.5,0,0.9,0
			c0.3,0,0.7,0.1,1.1,0.2c0.4,0.1,0.7,0.2,1,0.3s0.5,0.2,0.6,0.3s0.2,0.2,0.2,0.2s0.1,0.2,0.1,0.3s0,0.3,0.1,0.4
			C260.7,21,260.7,21.3,260.7,21.6z"/>
		<path class="st1" d="M286.6,32.1c0,0.7-0.2,1.2-0.6,1.5s-0.7,0.4-1.1,0.4h-18.1c0,1.6,0.2,3.1,0.5,4.5c0.3,1.3,0.9,2.5,1.6,3.4
			s1.7,1.7,2.9,2.2c1.2,0.5,2.7,0.8,4.4,0.8c1.2,0,2.3-0.1,3.3-0.3s1.8-0.5,2.5-0.7c0.7-0.3,1.3-0.5,1.8-0.7s0.8-0.3,1-0.3
			c0.1,0,0.2,0,0.3,0.1c0.1,0.1,0.2,0.2,0.2,0.3c0.1,0.1,0.1,0.3,0.1,0.5s0,0.4,0,0.7c0,0.1,0,0.3,0,0.4c0,0.1,0,0.2-0.1,0.4
			s-0.1,0.2-0.1,0.3c-0.1,0.1-0.1,0.2-0.2,0.3s-0.4,0.3-0.9,0.5s-1.2,0.5-2,0.7s-1.8,0.5-2.9,0.7s-2.3,0.3-3.5,0.3
			c-2.1,0-3.9-0.3-5.5-0.9s-2.9-1.5-4-2.7s-1.9-2.7-2.4-4.5c-0.6-1.8-0.8-3.8-0.8-6.2c0-2.2,0.3-4.3,0.9-6s1.4-3.3,2.5-4.5
			s2.4-2.2,3.9-2.8c1.5-0.6,3.2-1,5.1-1c2,0,3.7,0.3,5.1,1c1.4,0.7,2.6,1.6,3.5,2.7s1.6,2.4,2,3.9s0.6,3,0.6,4.7L286.6,32.1
			L286.6,32.1z M283,31.1c0.1-2.8-0.6-5-1.9-6.6s-3.3-2.4-5.9-2.4c-1.3,0-2.5,0.2-3.5,0.7s-1.9,1.2-2.6,2s-1.2,1.8-1.6,2.9
			s-0.6,2.2-0.6,3.4H283z"/>
		<path class="st1" d="M309.5,39.7c0,1.3-0.2,2.4-0.7,3.4s-1.1,1.9-2,2.6c-0.9,0.7-1.9,1.2-3.1,1.6c-1.2,0.4-2.6,0.6-4,0.6
			c-0.9,0-1.8-0.1-2.6-0.2s-1.6-0.3-2.2-0.6c-0.7-0.2-1.2-0.5-1.7-0.7s-0.8-0.5-1-0.7s-0.4-0.4-0.5-0.7s-0.1-0.7-0.1-1.2
			c0-0.3,0-0.5,0.1-0.7s0.1-0.4,0.1-0.5s0.1-0.2,0.2-0.3s0.2-0.1,0.3-0.1c0.2,0,0.5,0.1,0.9,0.4c0.4,0.3,0.9,0.6,1.5,0.9
			s1.3,0.6,2.2,0.9c0.9,0.3,1.8,0.4,2.9,0.4c0.9,0,1.7-0.1,2.5-0.3c0.7-0.2,1.4-0.5,1.9-0.9s1-0.9,1.3-1.5s0.5-1.3,0.5-2.2
			s-0.2-1.5-0.6-2.1s-0.9-1.1-1.5-1.5c-0.6-0.4-1.4-0.8-2.2-1.1c-0.8-0.3-1.6-0.7-2.5-1s-1.7-0.7-2.5-1.1c-0.8-0.4-1.5-0.9-2.2-1.5
			c-0.6-0.6-1.1-1.3-1.5-2.1c-0.4-0.8-0.6-1.8-0.6-3c0-0.9,0.2-1.8,0.5-2.7c0.4-0.9,0.9-1.7,1.6-2.4c0.7-0.7,1.7-1.3,2.8-1.7
			c1.1-0.4,2.5-0.6,4.1-0.6c0.7,0,1.3,0.1,2,0.2s1.3,0.2,1.8,0.4c0.5,0.2,1,0.4,1.4,0.6c0.4,0.2,0.7,0.4,0.9,0.5
			c0.2,0.2,0.3,0.3,0.4,0.4s0.1,0.2,0.1,0.3c0,0.1,0.1,0.3,0.1,0.4s0,0.4,0,0.6s0,0.4,0,0.6s-0.1,0.3-0.1,0.5s-0.1,0.2-0.2,0.3
			c-0.1,0.1-0.2,0.1-0.3,0.1c-0.2,0-0.4-0.1-0.7-0.3c-0.3-0.2-0.7-0.4-1.2-0.7c-0.5-0.3-1.1-0.5-1.8-0.7c-0.7-0.2-1.5-0.3-2.4-0.3
			s-1.7,0.1-2.4,0.3c-0.7,0.2-1.3,0.5-1.7,0.9c-0.5,0.4-0.8,0.9-1,1.4s-0.3,1.1-0.3,1.7c0,0.9,0.2,1.6,0.6,2.2s0.9,1.1,1.6,1.5
			s1.4,0.8,2.2,1.1c0.8,0.3,1.7,0.7,2.5,1c0.9,0.3,1.7,0.7,2.5,1.1c0.8,0.4,1.6,0.9,2.2,1.5c0.6,0.6,1.2,1.2,1.6,2
			S309.5,38.6,309.5,39.7z"/>
		<path class="st1" d="M331.9,39.7c0,1.3-0.2,2.4-0.7,3.4s-1.1,1.9-2,2.6c-0.9,0.7-1.9,1.2-3.1,1.6c-1.2,0.4-2.6,0.6-4,0.6
			c-0.9,0-1.8-0.1-2.6-0.2s-1.6-0.3-2.2-0.6c-0.7-0.2-1.2-0.5-1.7-0.7c-0.5-0.3-0.8-0.5-1-0.7s-0.4-0.4-0.5-0.7s-0.1-0.7-0.1-1.2
			c0-0.3,0-0.5,0.1-0.7s0.1-0.4,0.1-0.5s0.1-0.2,0.2-0.3s0.2-0.1,0.3-0.1c0.2,0,0.5,0.1,0.9,0.4c0.4,0.3,0.9,0.6,1.5,0.9
			s1.3,0.6,2.2,0.9c0.9,0.3,1.8,0.4,2.9,0.4c0.9,0,1.7-0.1,2.5-0.3c0.7-0.2,1.4-0.5,1.9-0.9s1-0.9,1.3-1.5s0.5-1.3,0.5-2.2
			s-0.2-1.5-0.6-2.1s-0.9-1.1-1.5-1.5c-0.6-0.4-1.4-0.8-2.2-1.1c-0.8-0.3-1.6-0.7-2.5-1s-1.7-0.7-2.5-1.1c-0.8-0.4-1.5-0.9-2.2-1.5
			c-0.6-0.6-1.1-1.3-1.5-2.1c-0.4-0.8-0.6-1.8-0.6-3c0-0.9,0.2-1.8,0.5-2.7c0.4-0.9,0.9-1.7,1.6-2.4c0.7-0.7,1.7-1.3,2.8-1.7
			c1.1-0.4,2.5-0.6,4.1-0.6c0.7,0,1.3,0.1,2,0.2s1.3,0.2,1.8,0.4c0.5,0.2,1,0.4,1.4,0.6c0.4,0.2,0.7,0.4,0.9,0.5
			c0.2,0.2,0.3,0.3,0.4,0.4s0.1,0.2,0.1,0.3c0,0.1,0.1,0.3,0.1,0.4s0,0.4,0,0.6s0,0.4,0,0.6s-0.1,0.3-0.1,0.5s-0.1,0.2-0.2,0.3
			c-0.1,0.1-0.2,0.1-0.3,0.1c-0.2,0-0.4-0.1-0.7-0.3c-0.3-0.2-0.7-0.4-1.2-0.7c-0.5-0.3-1.1-0.5-1.8-0.7c-0.7-0.2-1.5-0.3-2.4-0.3
			s-1.7,0.1-2.4,0.3c-0.7,0.2-1.3,0.5-1.7,0.9c-0.5,0.4-0.8,0.9-1,1.4s-0.3,1.1-0.3,1.7c0,0.9,0.2,1.6,0.6,2.2s0.9,1.1,1.6,1.5
			s1.4,0.8,2.2,1.1c0.8,0.3,1.7,0.7,2.5,1c0.9,0.3,1.7,0.7,2.5,1.1c0.8,0.4,1.6,0.9,2.2,1.5c0.6,0.6,1.2,1.2,1.6,2
			S331.9,38.6,331.9,39.7z"/>
	</g>
</g>
</svg>
