<?xml version="1.0" encoding="utf-8"?>
<!-- Generator: Adobe Illustrator 19.0.0, SVG Export Plug-In . SVG Version: 6.00 Build 0)  -->
<!DOCTYPE svg PUBLIC "-//W3C//DTD SVG 1.1 Basic//EN" "http://www.w3.org/Graphics/SVG/1.1/DTD/svg11-basic.dtd">
<svg version="1.1" baseProfile="basic" id="Layer_1"
	 xmlns="http://www.w3.org/2000/svg" xmlns:xlink="http://www.w3.org/1999/xlink" x="0px" y="0px" viewBox="0 0 358.3 58.3"
	 xml:space="preserve">
<g id="XMLID_5_">
	<g id="XMLID_20_">
		<path id="XMLID_41_" fill="#C6093B" d="M48.7,45.5c2.7,0,4.4-2.2,3.8-4.8l-0.6-2.5l-2.4-9.9"/>
		<path id="XMLID_40_" fill="#C6093B" d="M49.4,28.3V13.9c0-0.8-0.1-1.5-0.4-2.1c-0.1-0.2-0.2-0.5-0.3-0.7c-0.2-0.4-0.4-0.7-0.7-1
			c-0.5-0.5-1-0.9-1.6-1.2c-0.6-0.3-1.3-0.4-1.9-0.4H18.2c-0.7,0-1.3,0.2-1.9,0.4c-0.6,0.3-1.1,0.7-1.6,1.2c-0.3,0.3-0.5,0.7-0.7,1
			c-0.1,0.2-0.3,0.5-0.3,0.7c-0.3,0.7-0.4,1.4-0.4,2.1v14.4C25.3,28.3,37.4,28.3,49.4,28.3z"/>
		<path id="XMLID_39_" fill="#FFFFFF" d="M13.2,28.3L13.2,28.3L13.2,28.3L13.2,28.3v14.4c0,0.8,0.1,1.5,0.4,2.2
			c0.1,0.2,0.2,0.5,0.3,0.7c0.2,0.4,0.4,0.7,0.7,1c0.5,0.5,1,0.9,1.6,1.2c0.6,0.3,1.3,0.4,1.9,0.4h26.2c0.7,0,1.3-0.2,1.9-0.4
			c0.6-0.3,1.1-0.7,1.6-1.2c0.3-0.3,0.5-0.7,0.7-1c0.1-0.2,0.3-0.5,0.3-0.7c0.3-0.7,0.4-1.4,0.4-2.2l0-14.4h0v0v0l0,0L13.2,28.3z"/>
		<line id="XMLID_38_" fill="none" x1="48.6" y1="38.2" x2="51.9" y2="38.2"/>
		<line id="XMLID_37_" fill="none" x1="13.4" y1="28.3" x2="49.4" y2="28.3"/>
		<path id="XMLID_36_" fill="#C6093B" d="M49.4,28.3L49.4,28.3L49.4,28.3l5.3-7.2c1.1-1.5-0.2-2.7-2.8-2.8"/>
		<path id="XMLID_35_" fill="#FFFFFF" d="M49.4,28.3l2.4-9.9l0.6-2.5c0.6-2.6-1.1-4.7-3.8-4.8"/>
		<path id="XMLID_34_" fill="#FFFFFF" d="M51.9,38.2c2.7,0,3.9-1.3,2.8-2.8l-5.3-7.2l0,0l0,0"/>
		
			<linearGradient id="XMLID_92_" gradientUnits="userSpaceOnUse" x1="318.8593" y1="36.4685" x2="318.8593" y2="36.4685" gradientTransform="matrix(-1 0 0 -1 368.3068 64.7239)">
			<stop  offset="0" style="stop-color:#C1633F"/>
			<stop  offset="1" style="stop-color:#942B24"/>
		</linearGradient>
		<polygon id="XMLID_33_" fill="url(#XMLID_92_)" points="49.4,28.3 49.4,28.3 49.4,28.3 		"/>
		
			<linearGradient id="XMLID_93_" gradientUnits="userSpaceOnUse" x1="318.8593" y1="36.4685" x2="318.8593" y2="36.4685" gradientTransform="matrix(-1 0 0 -1 368.3068 64.7239)">
			<stop  offset="0" style="stop-color:#C1633F"/>
			<stop  offset="1" style="stop-color:#942B24"/>
		</linearGradient>
		<polygon id="XMLID_32_" fill="url(#XMLID_93_)" points="49.4,28.3 49.4,28.3 49.4,28.3 		"/>
		
			<linearGradient id="XMLID_94_" gradientUnits="userSpaceOnUse" x1="318.8593" y1="36.4695" x2="318.8611" y2="36.4695" gradientTransform="matrix(-1 0 0 -1 368.3068 64.7239)">
			<stop  offset="0" style="stop-color:#C1633F"/>
			<stop  offset="1" style="stop-color:#942B24"/>
		</linearGradient>
		<polygon id="XMLID_31_" fill="url(#XMLID_94_)" points="49.4,28.3 49.4,28.3 49.4,28.3 49.4,28.3 49.4,28.3 		"/>
		
			<linearGradient id="XMLID_95_" gradientUnits="userSpaceOnUse" x1="318.8593" y1="36.4685" x2="318.8593" y2="36.4685" gradientTransform="matrix(-1 0 0 -1 368.3068 64.7239)">
			<stop  offset="0" style="stop-color:#C1633F"/>
			<stop  offset="1" style="stop-color:#942B24"/>
		</linearGradient>
		<rect id="XMLID_30_" x="49.4" y="28.3" fill="url(#XMLID_95_)" width="0" height="0"/>
		
			<linearGradient id="XMLID_96_" gradientUnits="userSpaceOnUse" x1="318.8593" y1="36.4685" x2="318.8593" y2="36.4685" gradientTransform="matrix(-1 0 0 -1 368.3068 64.7239)">
			<stop  offset="0" style="stop-color:#C1633F"/>
			<stop  offset="1" style="stop-color:#942B24"/>
		</linearGradient>
		<polygon id="XMLID_29_" fill="url(#XMLID_96_)" points="49.4,28.3 49.4,28.3 49.4,28.3 		"/>
		
			<linearGradient id="XMLID_97_" gradientUnits="userSpaceOnUse" x1="318.8593" y1="36.4685" x2="318.8611" y2="36.4685" gradientTransform="matrix(-1 0 0 -1 368.3068 64.7239)">
			<stop  offset="0" style="stop-color:#C1633F"/>
			<stop  offset="1" style="stop-color:#942B24"/>
		</linearGradient>
		<polygon id="XMLID_28_" fill="url(#XMLID_97_)" points="49.4,28.3 49.4,28.3 49.4,28.3 		"/>
		<path id="XMLID_27_" fill="#FFFFFF" d="M49.4,28.3L47,18.3l-0.6-2.5C45.8,13.2,43,11,40.2,11H22.6h-6.4h-2c0,0,0,0-0.1,0
			c-2.7,0-4.4,2.2-3.8,4.8l3.5,12.5"/>
		
			<linearGradient id="XMLID_98_" gradientUnits="userSpaceOnUse" x1="318.8593" y1="36.4685" x2="318.8611" y2="36.4685" gradientTransform="matrix(-1 0 0 -1 368.3068 64.7239)">
			<stop  offset="0" style="stop-color:#C1633F"/>
			<stop  offset="1" style="stop-color:#942B24"/>
		</linearGradient>
		<polygon id="XMLID_26_" fill="url(#XMLID_98_)" points="49.4,28.3 49.4,28.3 49.4,28.3 		"/>
		<path id="XMLID_25_" fill="#C6093B" d="M49.4,28.3L47,38.2l-0.6,2.5c-0.6,2.6-3.4,4.8-6.2,4.8l-26,0c0,0,0,0-0.1,0
			c-2.7,0-4.4-2.2-3.8-4.8l0.6-2.5c0.1,0,0.1,0,0.1,0l2.7-9.9"/>
		
			<linearGradient id="XMLID_99_" gradientUnits="userSpaceOnUse" x1="318.8593" y1="36.4685" x2="318.8611" y2="36.4685" gradientTransform="matrix(-1 0 0 -1 368.3068 64.7239)">
			<stop  offset="0" style="stop-color:#C1633F"/>
			<stop  offset="1" style="stop-color:#942B24"/>
		</linearGradient>
		<rect id="XMLID_24_" x="49.4" y="28.3" fill="url(#XMLID_99_)" width="0" height="0"/>
		
			<linearGradient id="XMLID_100_" gradientUnits="userSpaceOnUse" x1="318.8611" y1="36.4685" x2="318.8611" y2="36.4685" gradientTransform="matrix(-1 0 0 -1 368.3068 64.7239)">
			<stop  offset="0" style="stop-color:#C1633F"/>
			<stop  offset="1" style="stop-color:#942B24"/>
		</linearGradient>
		<polygon id="XMLID_23_" fill="url(#XMLID_100_)" points="49.4,28.3 49.4,28.3 49.4,28.3 		"/>
		<path id="XMLID_22_" fill="#C6093B" d="M49.4,28.3L49.4,28.3l-5.3-7.2c-1.1-1.5-4.3-2.8-7-2.8h-26c-0.1,0-0.1,0-0.1,0
			c-2.7,0-3.9,1.3-2.8,2.8l5.3,7.2l0,0"/>
		<path id="XMLID_21_" fill="#FFFFFF" d="M13.4,28.3l-5.3,7.2C7,36.9,8.3,38.1,11,38.2c0.1,0,0.1,0,0.1,0h26c2.8,0,5.9-1.2,7-2.8
			l5.3-7.2"/>
	</g>
	<g id="XMLID_7_">
		<g id="XMLID_8_">
			<path id="XMLID_16_" fill="#00416A" d="M93.1,37.1c0,1.3-0.2,2.5-0.5,3.6c-0.4,1.1-0.9,2-1.5,2.9c-0.6,0.8-1.4,1.5-2.3,2.1
				c-0.9,0.6-1.9,1.1-3,1.5c-1.1,0.4-2.2,0.7-3.5,0.9c-1.2,0.2-2.6,0.3-4.1,0.3h-10c-0.6,0-1.2-0.2-1.6-0.6c-0.4-0.4-0.7-1-0.7-1.8
				V13.3c0-0.8,0.2-1.5,0.7-1.8c0.4-0.4,1-0.6,1.6-0.6h9.4c2.3,0,4.2,0.2,5.8,0.6c1.6,0.4,2.9,1,4,1.8c1.1,0.8,1.9,1.8,2.5,3
				c0.6,1.2,0.9,2.6,0.9,4.2c0,0.9-0.1,1.8-0.3,2.6c-0.2,0.8-0.6,1.5-1,2.2c-0.4,0.7-1,1.2-1.6,1.7c-0.6,0.5-1.4,0.9-2.2,1.2
				c1.1,0.2,2,0.5,2.9,1c0.9,0.5,1.7,1.1,2.3,1.9c0.7,0.8,1.2,1.7,1.6,2.7C92.9,34.7,93.1,35.8,93.1,37.1z M83.2,21.3
				c0-0.8-0.1-1.4-0.3-2c-0.2-0.6-0.6-1.1-1-1.5c-0.5-0.4-1-0.7-1.8-0.9c-0.7-0.2-1.6-0.3-2.8-0.3h-3.8v9.7h4.3c1.1,0,2-0.1,2.6-0.4
				c0.7-0.3,1.2-0.6,1.6-1.1c0.4-0.5,0.8-1,1-1.6C83.1,22.6,83.2,22,83.2,21.3z M85.2,37.3c0-0.9-0.1-1.6-0.4-2.3
				c-0.3-0.7-0.7-1.3-1.3-1.7c-0.6-0.5-1.3-0.8-2.1-1.1c-0.9-0.2-2-0.4-3.4-0.4h-4.5v10.7h5.5c1.1,0,2-0.1,2.7-0.3
				c0.7-0.2,1.4-0.6,1.9-1c0.5-0.4,0.9-1,1.2-1.6C85,38.9,85.2,38.2,85.2,37.3z"/>
			<path id="XMLID_13_" fill="#00416A" d="M104.2,12.8c0,1.5-0.3,2.5-0.9,3c-0.6,0.6-1.7,0.8-3.3,0.8c-1.6,0-2.7-0.3-3.3-0.8
				c-0.6-0.5-0.9-1.5-0.9-2.9c0-1.5,0.3-2.5,0.9-3.1C97.3,9.3,98.4,9,100,9c1.6,0,2.7,0.3,3.3,0.8C103.9,10.4,104.2,11.4,104.2,12.8
				z M103.6,47.3c0,0.2-0.1,0.4-0.2,0.5c-0.1,0.1-0.3,0.3-0.6,0.4c-0.3,0.1-0.7,0.2-1.1,0.2c-0.5,0-1.1,0.1-1.8,0.1
				c-0.7,0-1.3,0-1.8-0.1c-0.5,0-0.8-0.1-1.1-0.2c-0.3-0.1-0.5-0.2-0.6-0.4c-0.1-0.1-0.2-0.3-0.2-0.5V21.6c0-0.2,0.1-0.4,0.2-0.5
				c0.1-0.1,0.3-0.3,0.6-0.4c0.3-0.1,0.7-0.2,1.1-0.2c0.5-0.1,1.1-0.1,1.8-0.1c0.7,0,1.3,0,1.8,0.1c0.5,0.1,0.8,0.1,1.1,0.2
				c0.3,0.1,0.5,0.2,0.6,0.4c0.1,0.1,0.2,0.3,0.2,0.5V47.3z"/>
			<path id="XMLID_11_" fill="#00416A" d="M149.6,47.3c0,0.2-0.1,0.4-0.2,0.5c-0.1,0.1-0.3,0.3-0.6,0.4c-0.3,0.1-0.6,0.2-1.1,0.2
				c-0.5,0-1.1,0.1-1.8,0.1c-0.7,0-1.3,0-1.8-0.1c-0.5,0-0.8-0.1-1.1-0.2c-0.3-0.1-0.5-0.2-0.6-0.4c-0.1-0.1-0.2-0.3-0.2-0.5V32
				c0-0.9-0.1-1.7-0.2-2.4c-0.2-0.7-0.4-1.3-0.8-1.8c-0.3-0.5-0.8-0.9-1.3-1.2c-0.5-0.3-1.1-0.4-1.8-0.4c-0.9,0-1.7,0.3-2.6,1
				c-0.9,0.7-1.9,1.7-2.9,3v17.2c0,0.2-0.1,0.4-0.2,0.5c-0.1,0.1-0.3,0.3-0.6,0.4c-0.3,0.1-0.7,0.2-1.1,0.2c-0.5,0-1,0.1-1.7,0.1
				c-0.7,0-1.3,0-1.8-0.1c-0.5,0-0.8-0.1-1.1-0.2c-0.3-0.1-0.5-0.2-0.6-0.4c-0.1-0.1-0.2-0.3-0.2-0.5V32c0-0.9-0.1-1.7-0.2-2.4
				c-0.2-0.7-0.4-1.3-0.7-1.8c-0.3-0.5-0.8-0.9-1.3-1.2s-1.1-0.4-1.8-0.4c-0.9,0-1.8,0.3-2.7,1c-0.9,0.7-1.8,1.7-2.9,3v17.2
				c0,0.2-0.1,0.4-0.2,0.5c-0.1,0.1-0.3,0.3-0.6,0.4c-0.3,0.1-0.7,0.2-1.1,0.2c-0.5,0-1.1,0.1-1.8,0.1c-0.7,0-1.3,0-1.8-0.1
				c-0.5,0-0.8-0.1-1.1-0.2c-0.3-0.1-0.5-0.2-0.6-0.4c-0.1-0.1-0.2-0.3-0.2-0.5V21.5c0-0.2,0-0.4,0.1-0.5c0.1-0.1,0.3-0.3,0.5-0.4
				c0.3-0.1,0.6-0.2,1-0.2c0.4,0,0.9-0.1,1.5-0.1c0.6,0,1.1,0,1.5,0.1c0.4,0,0.7,0.1,0.9,0.2c0.2,0.1,0.4,0.2,0.5,0.4
				c0.1,0.1,0.1,0.3,0.1,0.5v3c1.4-1.5,2.9-2.7,4.3-3.5c1.4-0.8,2.9-1.2,4.4-1.2c1.1,0,2,0.1,2.9,0.3c0.8,0.2,1.6,0.5,2.3,1
				c0.7,0.4,1.2,0.9,1.7,1.5c0.5,0.6,0.9,1.2,1.2,1.9c0.8-0.8,1.5-1.5,2.3-2.1c0.7-0.6,1.5-1.1,2.2-1.5c0.7-0.4,1.4-0.7,2.2-0.8
				c0.7-0.2,1.5-0.3,2.2-0.3c1.7,0,3.2,0.3,4.3,0.9c1.2,0.6,2.1,1.4,2.9,2.4c0.7,1,1.2,2.2,1.5,3.5c0.3,1.3,0.5,2.7,0.5,4.2V47.3z"
				/>
			<path id="XMLID_9_" fill="#00416A" d="M161.7,47.3c0,0.2-0.1,0.4-0.2,0.5c-0.1,0.1-0.3,0.3-0.6,0.4c-0.3,0.1-0.7,0.2-1.1,0.2
				c-0.5,0-1.1,0.1-1.8,0.1c-0.7,0-1.3,0-1.8-0.1c-0.5,0-0.8-0.1-1.1-0.2c-0.3-0.1-0.5-0.2-0.6-0.4c-0.1-0.1-0.2-0.3-0.2-0.5V9.3
				c0-0.2,0.1-0.4,0.2-0.5c0.1-0.2,0.3-0.3,0.6-0.4c0.3-0.1,0.7-0.2,1.1-0.2c0.5-0.1,1.1-0.1,1.8-0.1c0.7,0,1.3,0,1.8,0.1
				c0.5,0.1,0.8,0.1,1.1,0.2c0.3,0.1,0.5,0.2,0.6,0.4c0.1,0.2,0.2,0.3,0.2,0.5V47.3z"/>
		</g>
	</g>
	<g id="XMLID_51_">
		<path id="XMLID_52_" fill="#00416A" d="M200.1,29.1c0,3-0.3,5.8-1,8.2c-0.7,2.5-1.7,4.5-3.1,6.3s-3.1,3.1-5.3,4
			c-2.1,0.9-4.6,1.4-7.4,1.4s-5.2-0.4-7.3-1.3s-3.7-2.2-5-3.8c-1.3-1.7-2.3-3.7-2.9-6.1c-0.6-2.4-0.9-5.1-0.9-8.1c0-3,0.3-5.7,1-8.1
			s1.7-4.5,3.1-6.2c1.4-1.7,3.1-3,5.3-4c2.1-0.9,4.6-1.4,7.4-1.4c2.8,0,5.1,0.4,7.2,1.3s3.7,2.1,5,3.8c1.3,1.6,2.3,3.6,2.9,6
			C199.8,23.5,200.1,26.1,200.1,29.1z M196.3,29.4c0-2.2-0.2-4.4-0.6-6.3c-0.4-2-1.1-3.7-2.1-5.1c-1-1.5-2.3-2.6-3.9-3.4
			c-1.6-0.8-3.6-1.2-6-1.2c-2.3,0-4.3,0.4-5.9,1.3c-1.6,0.9-2.9,2-3.9,3.5c-1,1.5-1.7,3.2-2.2,5.1s-0.7,4-0.7,6.2
			c0,2.3,0.2,4.5,0.6,6.4c0.4,2,1.1,3.7,2,5.2c1,1.5,2.2,2.6,3.8,3.4c1.6,0.8,3.6,1.2,6,1.2c2.4,0,4.4-0.4,6-1.3s2.9-2.1,3.9-3.6
			c1-1.5,1.7-3.2,2.1-5.2C196.1,33.6,196.3,31.6,196.3,29.4z"/>
		<path id="XMLID_55_" fill="#00416A" d="M229,47.9c0,0.1,0,0.2-0.1,0.3c-0.1,0.1-0.2,0.2-0.3,0.2c-0.1,0.1-0.3,0.1-0.5,0.1
			s-0.5,0.1-0.8,0.1c-0.4,0-0.6,0-0.9-0.1s-0.4-0.1-0.5-0.1c-0.1-0.1-0.2-0.1-0.3-0.2c-0.1-0.1-0.1-0.2-0.1-0.3V32.1
			c0-1.6-0.1-3-0.4-4c-0.3-1-0.6-1.9-1.1-2.6s-1.2-1.3-2-1.7c-0.8-0.4-1.7-0.6-2.8-0.6c-1.3,0-2.7,0.5-4,1.4c-1.3,1-2.8,2.4-4.3,4.2
			v19c0,0.1,0,0.2-0.1,0.3c-0.1,0.1-0.2,0.2-0.3,0.2s-0.3,0.1-0.5,0.1s-0.5,0.1-0.9,0.1c-0.3,0-0.6,0-0.8-0.1s-0.4-0.1-0.5-0.1
			c-0.1-0.1-0.2-0.1-0.3-0.2c0-0.1-0.1-0.2-0.1-0.3V21.3c0-0.1,0-0.2,0.1-0.3c0-0.1,0.1-0.2,0.3-0.2c0.1-0.1,0.3-0.1,0.5-0.1
			c0.2,0,0.5,0,0.8,0s0.6,0,0.8,0s0.4,0.1,0.5,0.1s0.2,0.2,0.2,0.2c0,0.1,0.1,0.2,0.1,0.3v3.8c1.5-1.7,3-2.9,4.5-3.7
			c1.5-0.8,2.9-1.1,4.4-1.1c1.7,0,3.2,0.3,4.4,0.9c1.2,0.6,2.2,1.4,2.9,2.4c0.7,1,1.3,2.2,1.6,3.5c0.3,1.3,0.5,2.9,0.5,4.8V47.9z"/>
		<path id="XMLID_57_" fill="#00416A" d="M241.4,47.9c0,0.1,0,0.2-0.1,0.3c-0.1,0.1-0.2,0.2-0.3,0.2c-0.1,0.1-0.3,0.1-0.5,0.1
			c-0.2,0-0.5,0.1-0.9,0.1c-0.3,0-0.6,0-0.8-0.1c-0.2,0-0.4-0.1-0.5-0.1s-0.2-0.1-0.3-0.2c0-0.1-0.1-0.2-0.1-0.3V8.4
			c0-0.1,0-0.2,0.1-0.3c0-0.1,0.1-0.2,0.3-0.2c0.1-0.1,0.3-0.1,0.5-0.1c0.2,0,0.5,0,0.8,0c0.4,0,0.6,0,0.9,0c0.2,0,0.4,0.1,0.5,0.1
			c0.1,0.1,0.2,0.2,0.3,0.2c0.1,0.1,0.1,0.2,0.1,0.3V47.9z"/>
		<path id="XMLID_59_" fill="#00416A" d="M254.4,12.4c0,0.9-0.2,1.6-0.5,1.9c-0.3,0.3-0.9,0.5-1.8,0.5c-0.9,0-1.5-0.2-1.8-0.5
			c-0.3-0.3-0.5-1-0.5-1.9c0-0.9,0.2-1.6,0.5-1.9c0.3-0.3,0.9-0.5,1.8-0.5c0.9,0,1.5,0.2,1.8,0.5C254.2,10.8,254.4,11.5,254.4,12.4z
			 M253.8,47.9c0,0.1,0,0.2-0.1,0.3c-0.1,0.1-0.2,0.2-0.3,0.2s-0.3,0.1-0.5,0.1s-0.5,0.1-0.9,0.1c-0.3,0-0.6,0-0.8-0.1
			s-0.4-0.1-0.5-0.1c-0.1-0.1-0.2-0.1-0.3-0.2c0-0.1-0.1-0.2-0.1-0.3V21.3c0-0.1,0-0.2,0.1-0.3c0-0.1,0.1-0.2,0.3-0.2
			c0.1-0.1,0.3-0.1,0.5-0.1s0.5,0,0.8,0c0.4,0,0.6,0,0.9,0s0.4,0.1,0.5,0.1s0.2,0.2,0.3,0.2c0.1,0.1,0.1,0.2,0.1,0.3V47.9z"/>
		<path id="XMLID_62_" fill="#00416A" d="M284.4,47.9c0,0.1,0,0.2-0.1,0.3c-0.1,0.1-0.2,0.2-0.3,0.2c-0.1,0.1-0.3,0.1-0.5,0.1
			s-0.5,0.1-0.8,0.1c-0.4,0-0.6,0-0.9-0.1s-0.4-0.1-0.5-0.1c-0.1-0.1-0.2-0.1-0.3-0.2c-0.1-0.1-0.1-0.2-0.1-0.3V32.1
			c0-1.6-0.1-3-0.4-4c-0.3-1-0.6-1.9-1.1-2.6s-1.2-1.3-2-1.7c-0.8-0.4-1.7-0.6-2.8-0.6c-1.3,0-2.7,0.5-4,1.4c-1.3,1-2.8,2.4-4.3,4.2
			v19c0,0.1,0,0.2-0.1,0.3c-0.1,0.1-0.2,0.2-0.3,0.2s-0.3,0.1-0.5,0.1s-0.5,0.1-0.9,0.1c-0.3,0-0.6,0-0.8-0.1s-0.4-0.1-0.5-0.1
			c-0.1-0.1-0.2-0.1-0.3-0.2c0-0.1-0.1-0.2-0.1-0.3V21.3c0-0.1,0-0.2,0.1-0.3c0-0.1,0.1-0.2,0.3-0.2c0.1-0.1,0.3-0.1,0.5-0.1
			c0.2,0,0.5,0,0.8,0s0.6,0,0.8,0s0.4,0.1,0.5,0.1s0.2,0.2,0.2,0.2c0,0.1,0.1,0.2,0.1,0.3v3.8c1.5-1.7,3-2.9,4.5-3.7
			c1.5-0.8,2.9-1.1,4.4-1.1c1.7,0,3.2,0.3,4.4,0.9c1.2,0.6,2.2,1.4,2.9,2.4c0.7,1,1.3,2.2,1.6,3.5c0.3,1.3,0.5,2.9,0.5,4.8V47.9z"/>
		<path id="XMLID_64_" fill="#00416A" d="M314.9,33.3c0,0.7-0.2,1.2-0.6,1.5c-0.4,0.3-0.7,0.4-1.1,0.4h-18.1c0,1.6,0.2,3.1,0.5,4.5
			c0.3,1.3,0.9,2.5,1.6,3.4c0.7,0.9,1.7,1.7,2.9,2.2c1.2,0.5,2.7,0.8,4.4,0.8c1.2,0,2.3-0.1,3.3-0.3c1-0.2,1.8-0.5,2.5-0.7
			c0.7-0.3,1.3-0.5,1.8-0.7c0.5-0.2,0.8-0.3,1-0.3c0.1,0,0.2,0,0.3,0.1s0.2,0.2,0.2,0.3s0.1,0.3,0.1,0.5c0,0.2,0,0.4,0,0.7
			c0,0.1,0,0.3,0,0.4s0,0.2-0.1,0.4s-0.1,0.2-0.1,0.3c-0.1,0.1-0.1,0.2-0.2,0.3s-0.4,0.3-0.9,0.5c-0.5,0.2-1.2,0.5-2,0.7
			c-0.8,0.2-1.8,0.5-2.9,0.7s-2.3,0.3-3.5,0.3c-2.1,0-3.9-0.3-5.5-0.9s-2.9-1.5-4-2.7c-1.1-1.2-1.9-2.7-2.4-4.5
			c-0.6-1.8-0.8-3.8-0.8-6.2c0-2.2,0.3-4.3,0.9-6c0.6-1.8,1.4-3.3,2.5-4.5c1.1-1.2,2.4-2.2,3.9-2.8c1.5-0.7,3.2-1,5.1-1
			c2,0,3.7,0.3,5.1,1c1.4,0.7,2.6,1.6,3.5,2.7c0.9,1.1,1.6,2.4,2,3.9c0.4,1.5,0.6,3.1,0.6,4.7V33.3z M311.3,32.2
			c0.1-2.8-0.6-5-1.9-6.6c-1.3-1.6-3.3-2.4-5.9-2.4c-1.3,0-2.5,0.2-3.5,0.7c-1,0.5-1.9,1.2-2.6,2c-0.7,0.8-1.2,1.8-1.6,2.9
			c-0.4,1.1-0.6,2.2-0.6,3.4H311.3z"/>
	</g>
</g>
<g id="XMLID_1_">
	<path id="XMLID_3_" fill="#00416A" d="M323.3,15.8c0,0.4-0.1,0.7-0.2,1.1c-0.1,0.3-0.3,0.6-0.4,0.8s-0.4,0.5-0.7,0.6
		c-0.3,0.2-0.5,0.3-0.9,0.4c-0.3,0.1-0.7,0.2-1,0.2c-0.4,0.1-0.8,0.1-1.2,0.1H316c-0.2,0-0.3-0.1-0.5-0.2c-0.1-0.1-0.2-0.3-0.2-0.5
		V8.9c0-0.2,0.1-0.4,0.2-0.5c0.1-0.1,0.3-0.2,0.5-0.2h2.7c0.7,0,1.2,0.1,1.7,0.2c0.5,0.1,0.9,0.3,1.2,0.5c0.3,0.2,0.6,0.5,0.7,0.9
		s0.3,0.8,0.3,1.2c0,0.3,0,0.5-0.1,0.7c-0.1,0.2-0.2,0.4-0.3,0.6c-0.1,0.2-0.3,0.4-0.5,0.5s-0.4,0.3-0.6,0.4
		c0.3,0.1,0.6,0.2,0.9,0.3c0.3,0.1,0.5,0.3,0.7,0.5c0.2,0.2,0.3,0.5,0.5,0.8S323.3,15.4,323.3,15.8z M320.4,11.2
		c0-0.2,0-0.4-0.1-0.6c-0.1-0.2-0.2-0.3-0.3-0.4c-0.1-0.1-0.3-0.2-0.5-0.3c-0.2-0.1-0.5-0.1-0.8-0.1h-1.1v2.8h1.2
		c0.3,0,0.6,0,0.8-0.1c0.2-0.1,0.4-0.2,0.5-0.3c0.1-0.1,0.2-0.3,0.3-0.5S320.4,11.4,320.4,11.2z M321,15.9c0-0.3,0-0.5-0.1-0.7
		c-0.1-0.2-0.2-0.4-0.4-0.5c-0.2-0.1-0.4-0.2-0.6-0.3c-0.3-0.1-0.6-0.1-1-0.1h-1.3v3.1h1.6c0.3,0,0.6,0,0.8-0.1
		c0.2-0.1,0.4-0.2,0.5-0.3c0.2-0.1,0.3-0.3,0.4-0.5C320.9,16.3,321,16.1,321,15.9z"/>
	<path id="XMLID_44_" fill="#00416A" d="M331.3,18.2c0,0.2,0,0.3,0,0.4c0,0.1,0,0.2-0.1,0.3c0,0.1-0.1,0.1-0.1,0.1c0,0-0.1,0-0.1,0
		h-5.5c-0.2,0-0.3-0.1-0.5-0.2c-0.1-0.1-0.2-0.3-0.2-0.5V8.9c0-0.2,0.1-0.4,0.2-0.5c0.1-0.1,0.3-0.2,0.5-0.2h5.5c0.1,0,0.1,0,0.1,0
		c0,0,0.1,0.1,0.1,0.1c0,0.1,0,0.2,0.1,0.3c0,0.1,0,0.2,0,0.4c0,0.2,0,0.3,0,0.4c0,0.1,0,0.2-0.1,0.3c0,0.1-0.1,0.1-0.1,0.1
		c0,0-0.1,0-0.1,0h-3.9v2.7h3.3c0.1,0,0.1,0,0.1,0c0,0,0.1,0.1,0.1,0.1c0,0.1,0,0.2,0.1,0.3s0,0.2,0,0.4c0,0.2,0,0.3,0,0.4
		s0,0.2-0.1,0.3c0,0.1-0.1,0.1-0.1,0.1s-0.1,0-0.1,0h-3.3v3.1h3.9c0.1,0,0.1,0,0.1,0c0,0,0.1,0.1,0.1,0.1c0,0.1,0,0.2,0.1,0.3
		C331.3,17.9,331.3,18,331.3,18.2z"/>
	<path id="XMLID_46_" fill="#00416A" d="M340.7,9.1c0,0.2,0,0.3,0,0.4c0,0.1,0,0.2-0.1,0.3c0,0.1-0.1,0.1-0.1,0.2
		c0,0-0.1,0.1-0.1,0.1h-2.7v8.8c0,0.1,0,0.1-0.1,0.2c0,0-0.1,0.1-0.2,0.1c-0.1,0-0.2,0.1-0.3,0.1c-0.1,0-0.3,0-0.5,0s-0.4,0-0.5,0
		c-0.1,0-0.3,0-0.3-0.1c-0.1,0-0.1-0.1-0.2-0.1c0,0-0.1-0.1-0.1-0.2V10h-2.7c-0.1,0-0.1,0-0.1-0.1s-0.1-0.1-0.1-0.2s0-0.2-0.1-0.3
		c0-0.1,0-0.3,0-0.4c0-0.2,0-0.3,0-0.4c0-0.1,0-0.2,0.1-0.3s0.1-0.1,0.1-0.2c0,0,0.1,0,0.1,0h7.7c0.1,0,0.1,0,0.1,0
		c0,0,0.1,0.1,0.1,0.2c0,0.1,0,0.2,0.1,0.3C340.7,8.7,340.7,8.9,340.7,9.1z"/>
	<path id="XMLID_48_" fill="#00416A" d="M349.3,18.2c0.1,0.2,0.1,0.4,0.1,0.5c0,0.1,0,0.2-0.1,0.3c-0.1,0.1-0.2,0.1-0.3,0.1
		c-0.2,0-0.4,0-0.7,0c-0.3,0-0.5,0-0.7,0c-0.2,0-0.3,0-0.4-0.1c-0.1,0-0.1-0.1-0.2-0.1s-0.1-0.1-0.1-0.2l-0.7-2.2h-4.1l-0.7,2.1
		c0,0.1-0.1,0.1-0.1,0.2c0,0.1-0.1,0.1-0.2,0.1c-0.1,0-0.2,0.1-0.3,0.1s-0.3,0-0.6,0c-0.3,0-0.5,0-0.6,0c-0.1,0-0.2-0.1-0.3-0.1
		c-0.1-0.1-0.1-0.2-0.1-0.3s0.1-0.3,0.1-0.5l3.4-9.7c0-0.1,0.1-0.2,0.1-0.2c0-0.1,0.1-0.1,0.2-0.1c0.1,0,0.2-0.1,0.4-0.1
		c0.2,0,0.4,0,0.7,0c0.3,0,0.6,0,0.8,0c0.2,0,0.4,0,0.5,0.1c0.1,0,0.2,0.1,0.2,0.1s0.1,0.1,0.1,0.3L349.3,18.2z M344.3,10.2
		L344.3,10.2l-1.6,4.6h3.1L344.3,10.2z"/>
</g>
</svg>
