<?xml version="1.0" encoding="utf-8"?>
<!-- Generator: Adobe Illustrator 20.1.0, SVG Export Plug-In . SVG Version: 6.00 Build 0)  -->
<svg version="1.1" id="Layer_1" xmlns="http://www.w3.org/2000/svg" xmlns:xlink="http://www.w3.org/1999/xlink" x="0px" y="0px"
	 viewBox="0 0 242.1 58.4" style="enable-background:new 0 0 242.1 58.4;" xml:space="preserve">
<style type="text/css">
	.st0{fill:#FFFFFF;}
	.st1{fill:#C6093B;}
</style>
<g>
	<g>
		<g>
			<path class="st0" d="M82.6,35.9c0,1.3-0.2,2.5-0.5,3.6c-0.4,1.1-0.9,2-1.5,2.9c-0.6,0.8-1.4,1.5-2.3,2.1s-1.9,1.1-3,1.5
				s-2.2,0.7-3.5,0.9c-1.2,0.2-2.6,0.3-4.1,0.3h-10c-0.6,0-1.2-0.2-1.6-0.6c-0.4-0.4-0.7-1-0.7-1.8V12.1c0-0.8,0.2-1.5,0.7-1.8
				c0.4-0.4,1-0.6,1.6-0.6h9.4c2.3,0,4.2,0.2,5.8,0.6c1.6,0.4,2.9,1,4,1.8s1.9,1.8,2.5,3s0.9,2.6,0.9,4.2c0,0.9-0.1,1.8-0.3,2.6
				c-0.2,0.8-0.6,1.5-1,2.2s-1,1.2-1.6,1.7S76,26.7,75.2,27c1.1,0.2,2,0.5,2.9,1s1.7,1.1,2.3,1.9c0.7,0.8,1.2,1.7,1.6,2.7
				C82.4,33.5,82.6,34.7,82.6,35.9z M72.8,20.2c0-0.8-0.1-1.4-0.3-2c-0.2-0.6-0.6-1.1-1-1.5c-0.5-0.4-1-0.7-1.8-0.9
				c-0.7-0.2-1.6-0.3-2.8-0.3H63v9.7h4.3c1.1,0,2-0.1,2.6-0.4c0.7-0.3,1.2-0.6,1.6-1.1s0.8-1,1-1.6S72.8,20.8,72.8,20.2z M74.7,36.2
				c0-0.9-0.1-1.6-0.4-2.3s-0.7-1.3-1.3-1.7c-0.6-0.5-1.3-0.8-2.1-1.1c-0.9-0.2-2-0.4-3.4-0.4H63v10.7h5.5c1.1,0,2-0.1,2.7-0.3
				s1.4-0.6,1.9-1s0.9-1,1.2-1.6C74.6,37.8,74.7,37,74.7,36.2z"/>
			<path class="st0" d="M93.7,11.6c0,1.5-0.3,2.5-0.9,3c-0.6,0.6-1.7,0.8-3.3,0.8c-1.6,0-2.7-0.3-3.3-0.8c-0.6-0.5-0.9-1.5-0.9-2.9
				c0-1.5,0.3-2.5,0.9-3.1s1.7-0.9,3.3-0.9c1.6,0,2.7,0.3,3.3,0.8C93.5,9.2,93.7,10.2,93.7,11.6z M93.2,46.2c0,0.2-0.1,0.4-0.2,0.5
				s-0.3,0.3-0.6,0.4c-0.3,0.1-0.7,0.2-1.1,0.2c-0.5,0-1.1,0.1-1.8,0.1c-0.7,0-1.3,0-1.8-0.1c-0.5,0-0.8-0.1-1.1-0.2
				c-0.3-0.1-0.5-0.2-0.6-0.4c-0.1-0.1-0.2-0.3-0.2-0.5V20.4c0-0.2,0.1-0.4,0.2-0.5s0.3-0.3,0.6-0.4c0.3-0.1,0.7-0.2,1.1-0.2
				c0.5-0.1,1.1-0.1,1.8-0.1c0.7,0,1.3,0,1.8,0.1s0.8,0.1,1.1,0.2c0.3,0.1,0.5,0.2,0.6,0.4c0.1,0.1,0.2,0.3,0.2,0.5V46.2z"/>
			<path class="st0" d="M139.2,46.2c0,0.2-0.1,0.4-0.2,0.5c-0.1,0.1-0.3,0.3-0.6,0.4c-0.3,0.1-0.6,0.2-1.1,0.2s-1.1,0.1-1.8,0.1
				s-1.3,0-1.8-0.1c-0.5,0-0.8-0.1-1.1-0.2c-0.3-0.1-0.5-0.2-0.6-0.4c-0.1-0.1-0.2-0.3-0.2-0.5V30.9c0-0.9-0.1-1.7-0.2-2.4
				c-0.2-0.7-0.4-1.3-0.8-1.8c-0.3-0.5-0.8-0.9-1.3-1.2c-0.5-0.3-1.1-0.4-1.8-0.4c-0.9,0-1.7,0.3-2.6,1s-1.9,1.7-2.9,3v17.2
				c0,0.2-0.1,0.4-0.2,0.5s-0.3,0.3-0.6,0.4c-0.3,0.1-0.7,0.2-1.1,0.2c-0.5,0-1,0.1-1.7,0.1s-1.3,0-1.8-0.1c-0.5,0-0.8-0.1-1.1-0.2
				c-0.3-0.1-0.5-0.2-0.6-0.4c-0.1-0.1-0.2-0.3-0.2-0.5V30.9c0-0.9-0.1-1.7-0.2-2.4c-0.2-0.7-0.4-1.3-0.7-1.8
				c-0.3-0.5-0.8-0.9-1.3-1.2s-1.1-0.4-1.8-0.4c-0.9,0-1.8,0.3-2.7,1c-0.9,0.7-1.8,1.7-2.9,3v17.2c0,0.2-0.1,0.4-0.2,0.5
				s-0.3,0.3-0.6,0.4c-0.3,0.1-0.7,0.2-1.1,0.2c-0.5,0-1.1,0.1-1.8,0.1c-0.7,0-1.3,0-1.8-0.1c-0.5,0-0.8-0.1-1.1-0.2
				c-0.3-0.1-0.5-0.2-0.6-0.4c-0.1-0.1-0.2-0.3-0.2-0.5V20.4c0-0.2,0-0.4,0.1-0.5s0.3-0.3,0.5-0.4c0.3-0.1,0.6-0.2,1-0.2
				s0.9-0.1,1.5-0.1s1.1,0,1.5,0.1c0.4,0,0.7,0.1,0.9,0.2c0.2,0.1,0.4,0.2,0.5,0.4c0.1,0.1,0.1,0.3,0.1,0.5v3
				c1.4-1.5,2.9-2.7,4.3-3.5s2.9-1.2,4.4-1.2c1.1,0,2,0.1,2.9,0.3c0.8,0.2,1.6,0.5,2.3,1c0.7,0.4,1.2,0.9,1.7,1.5s0.9,1.2,1.2,1.9
				c0.8-0.8,1.5-1.5,2.3-2.1c0.7-0.6,1.5-1.1,2.2-1.5s1.4-0.7,2.2-0.8c0.7-0.2,1.5-0.3,2.2-0.3c1.7,0,3.2,0.3,4.3,0.9
				c1.2,0.6,2.1,1.4,2.9,2.4c0.7,1,1.2,2.2,1.5,3.5s0.5,2.7,0.5,4.2v16.5H139.2z"/>
			<path class="st0" d="M151.2,46.2c0,0.2-0.1,0.4-0.2,0.5c-0.1,0.1-0.3,0.3-0.6,0.4c-0.3,0.1-0.7,0.2-1.1,0.2
				c-0.5,0-1.1,0.1-1.8,0.1s-1.3,0-1.8-0.1c-0.5,0-0.8-0.1-1.1-0.2c-0.3-0.1-0.5-0.2-0.6-0.4c-0.1-0.1-0.2-0.3-0.2-0.5V8.1
				c0-0.2,0.1-0.4,0.2-0.5c0.1-0.2,0.3-0.3,0.6-0.4s0.7-0.2,1.1-0.2c0.5-0.1,1.1-0.1,1.8-0.1s1.3,0,1.8,0.1s0.8,0.1,1.1,0.2
				s0.5,0.2,0.6,0.4c0.1,0.2,0.2,0.3,0.2,0.5V46.2z"/>
		</g>
	</g>
	<g>
		<path class="st0" d="M177.3,11c0,0.3,0,0.5-0.1,0.7c0,0.2-0.1,0.4-0.2,0.5s-0.2,0.2-0.3,0.3s-0.2,0.1-0.4,0.1h-14.7V27h13.9
			c0.1,0,0.3,0,0.4,0.1s0.2,0.1,0.3,0.2s0.2,0.3,0.2,0.5s0.1,0.4,0.1,0.7c0,0.3,0,0.5-0.1,0.7s-0.1,0.4-0.2,0.5
			c-0.1,0.1-0.2,0.2-0.3,0.3s-0.2,0.1-0.4,0.1h-13.9v16.7c0,0.1,0,0.2-0.1,0.3s-0.2,0.2-0.3,0.2c-0.1,0.1-0.3,0.1-0.5,0.1
			s-0.5,0.1-0.9,0.1c-0.3,0-0.6,0-0.9-0.1s-0.4-0.1-0.6-0.1s-0.2-0.1-0.3-0.2c-0.1-0.1-0.1-0.2-0.1-0.3V11.2c0-0.7,0.2-1.2,0.6-1.5
			c0.4-0.3,0.7-0.4,1.1-0.4h16.6c0.1,0,0.3,0,0.4,0.1s0.2,0.2,0.3,0.3s0.2,0.3,0.2,0.5C177.3,10.5,177.3,10.8,177.3,11z"/>
		<path class="st0" d="M186.6,46.8c0,0.1,0,0.2-0.1,0.3s-0.2,0.2-0.3,0.2c-0.1,0.1-0.3,0.1-0.5,0.1s-0.5,0.1-0.9,0.1
			c-0.3,0-0.6,0-0.8-0.1c-0.2,0-0.4-0.1-0.5-0.1s-0.2-0.1-0.3-0.2c0-0.1-0.1-0.2-0.1-0.3V7.2c0-0.1,0-0.2,0.1-0.3s0.1-0.2,0.3-0.3
			c0.1-0.1,0.3-0.1,0.5-0.1s0.5,0,0.8,0c0.4,0,0.6,0,0.9,0c0.2,0,0.4,0.1,0.5,0.1c0.1,0.1,0.2,0.2,0.3,0.3s0.1,0.2,0.1,0.3V46.8z"/>
		<path class="st0" d="M214.8,32.1c0,0.7-0.2,1.2-0.6,1.5s-0.7,0.4-1.1,0.4H195c0,1.6,0.2,3.1,0.5,4.5c0.3,1.3,0.9,2.5,1.6,3.4
			c0.7,0.9,1.7,1.7,2.9,2.2s2.7,0.8,4.4,0.8c1.2,0,2.3-0.1,3.3-0.3s1.8-0.5,2.5-0.7c0.7-0.3,1.3-0.5,1.8-0.7s0.8-0.3,1-0.3
			c0.1,0,0.2,0,0.3,0.1s0.2,0.2,0.2,0.3c0.1,0.1,0.1,0.3,0.1,0.5s0,0.4,0,0.7c0,0.1,0,0.3,0,0.4c0,0.1,0,0.2-0.1,0.4
			s-0.1,0.2-0.1,0.3c-0.1,0.1-0.1,0.2-0.2,0.3s-0.4,0.3-0.9,0.5s-1.2,0.5-2,0.7s-1.8,0.5-2.9,0.7c-1.1,0.2-2.3,0.3-3.5,0.3
			c-2.1,0-3.9-0.3-5.5-0.9s-2.9-1.5-4-2.7s-1.9-2.7-2.4-4.5c-0.6-1.8-0.8-3.8-0.8-6.2c0-2.2,0.3-4.3,0.9-6c0.6-1.8,1.4-3.3,2.5-4.5
			s2.4-2.2,3.9-2.8s3.2-1,5.1-1c2,0,3.7,0.3,5.1,1c1.4,0.7,2.6,1.6,3.5,2.7s1.6,2.4,2,3.9s0.6,3,0.6,4.7V32.1z M211.2,31.1
			c0.1-2.8-0.6-5-1.9-6.6c-1.3-1.6-3.3-2.4-5.9-2.4c-1.3,0-2.5,0.2-3.5,0.7s-1.9,1.2-2.6,2c-0.7,0.8-1.2,1.8-1.6,2.9
			c-0.4,1.1-0.6,2.2-0.6,3.4H211.2z"/>
		<path class="st0" d="M239.7,46.2c0.2,0.2,0.2,0.4,0.3,0.6c0,0.2-0.1,0.3-0.2,0.4s-0.3,0.2-0.6,0.2s-0.6,0.1-1.1,0.1
			c-0.4,0-0.7,0-1,0c-0.2,0-0.4-0.1-0.6-0.1c-0.1-0.1-0.3-0.1-0.4-0.2c-0.1-0.1-0.2-0.2-0.2-0.3l-7.2-11.1l-7.1,11.1
			c-0.1,0.1-0.2,0.2-0.2,0.3c-0.1,0.1-0.2,0.2-0.4,0.2c-0.2,0.1-0.4,0.1-0.6,0.1c-0.2,0-0.6,0-1,0s-0.8,0-1-0.1
			c-0.3,0-0.5-0.1-0.6-0.2c-0.1-0.1-0.2-0.2-0.2-0.4s0.1-0.4,0.3-0.6l8.7-12.9l-8.3-12.6c-0.2-0.2-0.2-0.4-0.2-0.6s0.1-0.3,0.2-0.4
			s0.4-0.2,0.7-0.2s0.7-0.1,1.1-0.1c0.4,0,0.7,0,1,0c0.2,0,0.4,0.1,0.6,0.1s0.2,0.1,0.3,0.2s0.2,0.2,0.2,0.3l6.7,10.4l6.9-10.4
			c0.1-0.1,0.2-0.2,0.2-0.3s0.2-0.2,0.3-0.2s0.3-0.1,0.5-0.1s0.5,0,0.9,0s0.8,0,1,0.1s0.5,0.1,0.6,0.2s0.2,0.2,0.2,0.4
			s-0.1,0.4-0.3,0.6L231,33.2L239.7,46.2z"/>
	</g>
	<g>
		<path class="st1" d="M38,18.9L20.9,36c-3.8,3.8-9.9,3.8-13.7,0H7.1l17.1-17.1C28,15.1,34.2,15.1,38,18.9L38,18.9z"/>
		<path class="st0" d="M18.2,43.2l-1.8-1.8c-0.3-0.3-0.9-0.1-0.9,0.4v10c0,0.6,0.5,1,1,1h10c0.5,0,0.7-0.6,0.4-0.9l-1.7-1.7l16.8-17
			c2.8-2.8,2.8-7.5,0-10.3l-1.8-1.8L18.2,43.2z"/>
		<path class="st0" d="M28.8,1.9h-10c-0.5,0-0.7,0.6-0.4,0.9l1.8,1.8l-17,17c-2.8,2.8-2.8,7.5,0,10.3L5,33.7l22.2-22.2l1.8,1.8
			c0.3,0.3,0.9,0.1,0.9-0.4v-10C29.8,2.4,29.3,1.9,28.8,1.9z"/>
	</g>
</g>
</svg>
