<?xml version="1.0" encoding="utf-8"?>
<!-- Generator: Adobe Illustrator 20.1.0, SVG Export Plug-In . SVG Version: 6.00 Build 0)  -->
<svg version="1.1" id="Layer_1" xmlns="http://www.w3.org/2000/svg" xmlns:xlink="http://www.w3.org/1999/xlink" x="0px" y="0px"
	 viewBox="0 0 295.4 58.4" style="enable-background:new 0 0 295.4 58.4;" xml:space="preserve">
<style type="text/css">
	.st0{fill:#C6093B;}
	.st1{fill:#FFFFFF;}
	.st2{fill:none;}
	.st3{fill:url(#XMLID_2_);}
	.st4{fill:url(#XMLID_3_);}
	.st5{fill:url(#XMLID_4_);}
	.st6{fill:url(#XMLID_5_);}
	.st7{fill:url(#XMLID_6_);}
	.st8{fill:url(#XMLID_7_);}
	.st9{fill:url(#XMLID_8_);}
	.st10{fill:url(#XMLID_9_);}
	.st11{fill:url(#XMLID_10_);}
</style>
<g>
	<g id="XMLID_119_">
		<g id="XMLID_158_">
			<path id="XMLID_179_" class="st0" d="M41.3,43.5c2.6,0,4.3-2.1,3.7-4.6l-0.6-2.4L42,26.9"/>
			<path id="XMLID_178_" class="st0" d="M42,26.9V13c0-0.7-0.1-1.4-0.4-2.1c-0.1-0.2-0.2-0.5-0.3-0.7c-0.2-0.4-0.4-0.7-0.7-1
				c-0.4-0.5-1-0.9-1.5-1.1c-0.6-0.3-1.2-0.4-1.9-0.4H11.8c-0.7,0-1.3,0.2-1.9,0.4C9.3,8.3,8.8,8.7,8.4,9.2c-0.3,0.3-0.5,0.6-0.7,1
				c-0.1,0.2-0.2,0.4-0.3,0.7C7.1,11.5,7,12.2,7,13v13.9C18.7,26.9,30.3,26.9,42,26.9z"/>
			<path id="XMLID_177_" class="st1" d="M7,26.9L7,26.9L7,26.9L7,26.9v13.9c0,0.7,0.1,1.4,0.4,2.1c0.1,0.2,0.2,0.5,0.3,0.7
				c0.2,0.4,0.4,0.7,0.7,1c0.4,0.5,1,0.9,1.5,1.1c0.6,0.3,1.2,0.4,1.9,0.4h25.4c0.7,0,1.3-0.2,1.9-0.4c0.6-0.3,1.1-0.7,1.5-1.1
				c0.3-0.3,0.5-0.6,0.7-1c0.1-0.2,0.2-0.4,0.3-0.7c0.2-0.6,0.4-1.3,0.4-2.1l0-13.9h0v0v0l0,0L7,26.9z"/>
			<line id="XMLID_176_" class="st2" x1="41.2" y1="36.5" x2="44.4" y2="36.5"/>
			<line id="XMLID_175_" class="st2" x1="7.2" y1="26.9" x2="42" y2="26.9"/>
			<path id="XMLID_174_" class="st0" d="M42,26.8L42,26.8L42,26.8l5.1-6.9c1.1-1.4-0.2-2.6-2.7-2.7"/>
			<path id="XMLID_173_" class="st1" d="M42,26.8l2.3-9.6l0.6-2.4c0.6-2.5-1-4.6-3.7-4.6"/>
			<path id="XMLID_172_" class="st1" d="M44.4,36.5c2.6,0,3.8-1.2,2.7-2.7L42,26.9l0,0l0,0"/>
			
				<linearGradient id="XMLID_2_" gradientUnits="userSpaceOnUse" x1="111.9705" y1="31.1487" x2="111.9705" y2="31.1487" gradientTransform="matrix(-1 0 0 -1 154 58)">
				<stop  offset="0" style="stop-color:#C0623F"/>
				<stop  offset="1" style="stop-color:#932A24"/>
			</linearGradient>
			<polygon id="XMLID_171_" class="st3" points="42,26.9 42,26.9 42,26.9 			"/>
			
				<linearGradient id="XMLID_3_" gradientUnits="userSpaceOnUse" x1="111.9705" y1="31.1487" x2="111.9705" y2="31.1487" gradientTransform="matrix(-1 0 0 -1 154 58)">
				<stop  offset="0" style="stop-color:#C0623F"/>
				<stop  offset="1" style="stop-color:#932A24"/>
			</linearGradient>
			<polygon id="XMLID_170_" class="st4" points="42,26.9 42,26.9 42,26.9 			"/>
			
				<linearGradient id="XMLID_4_" gradientUnits="userSpaceOnUse" x1="111.9705" y1="31.1496" x2="111.9723" y2="31.1496" gradientTransform="matrix(-1 0 0 -1 154 58)">
				<stop  offset="0" style="stop-color:#C0623F"/>
				<stop  offset="1" style="stop-color:#932A24"/>
			</linearGradient>
			<polygon id="XMLID_169_" class="st5" points="42,26.8 42,26.9 42,26.9 42,26.9 42,26.9 			"/>
			
				<linearGradient id="XMLID_5_" gradientUnits="userSpaceOnUse" x1="111.9705" y1="31.1487" x2="111.9705" y2="31.1487" gradientTransform="matrix(-1 0 0 -1 154 58)">
				<stop  offset="0" style="stop-color:#C0623F"/>
				<stop  offset="1" style="stop-color:#932A24"/>
			</linearGradient>
			<circle id="XMLID_168_" class="st6" cx="42" cy="26.9" r="0"/>
			
				<linearGradient id="XMLID_6_" gradientUnits="userSpaceOnUse" x1="111.9705" y1="31.1487" x2="111.9705" y2="31.1487" gradientTransform="matrix(-1 0 0 -1 154 58)">
				<stop  offset="0" style="stop-color:#C0623F"/>
				<stop  offset="1" style="stop-color:#932A24"/>
			</linearGradient>
			<polygon id="XMLID_167_" class="st7" points="42,26.9 42,26.9 42,26.9 			"/>
			
				<linearGradient id="XMLID_7_" gradientUnits="userSpaceOnUse" x1="111.9705" y1="31.1487" x2="111.9723" y2="31.1487" gradientTransform="matrix(-1 0 0 -1 154 58)">
				<stop  offset="0" style="stop-color:#C0623F"/>
				<stop  offset="1" style="stop-color:#932A24"/>
			</linearGradient>
			<polygon id="XMLID_166_" class="st8" points="42,26.9 42,26.9 42,26.9 			"/>
			<path id="XMLID_165_" class="st1" d="M42,26.9l-2.3-9.6l-0.6-2.4c-0.6-2.5-3.3-4.6-6-4.6H16.1H9.9h-2c0,0,0,0-0.1,0
				c-2.6,0-4.3,2.1-3.7,4.6l3.4,12"/>
			
				<linearGradient id="XMLID_8_" gradientUnits="userSpaceOnUse" x1="111.9705" y1="31.1487" x2="111.9723" y2="31.1487" gradientTransform="matrix(-1 0 0 -1 154 58)">
				<stop  offset="0" style="stop-color:#C0623F"/>
				<stop  offset="1" style="stop-color:#932A24"/>
			</linearGradient>
			<polygon id="XMLID_164_" class="st9" points="42,26.9 42,26.9 42,26.9 			"/>
			<path id="XMLID_163_" class="st0" d="M42,26.9l-2.3,9.6l-0.6,2.4c-0.6,2.6-3.3,4.6-6,4.6l-25.2,0c0,0,0,0-0.1,0
				c-2.6,0-4.3-2.1-3.7-4.6l0.6-2.4c0,0,0.1,0,0.1,0l2.6-9.6"/>
			
				<linearGradient id="XMLID_9_" gradientUnits="userSpaceOnUse" x1="111.9705" y1="31.1487" x2="111.9723" y2="31.1487" gradientTransform="matrix(-1 0 0 -1 154 58)">
				<stop  offset="0" style="stop-color:#C0623F"/>
				<stop  offset="1" style="stop-color:#932A24"/>
			</linearGradient>
			<circle id="XMLID_162_" class="st10" cx="42" cy="26.9" r="0"/>
			
				<linearGradient id="XMLID_10_" gradientUnits="userSpaceOnUse" x1="111.9723" y1="31.1487" x2="111.9723" y2="31.1487" gradientTransform="matrix(-1 0 0 -1 154 58)">
				<stop  offset="0" style="stop-color:#C0623F"/>
				<stop  offset="1" style="stop-color:#932A24"/>
			</linearGradient>
			<polygon id="XMLID_161_" class="st11" points="42,26.9 42,26.9 42,26.9 			"/>
			<path id="XMLID_160_" class="st0" d="M42,26.9L42,26.9l-5.1-6.9c-1.1-1.5-4.1-2.7-6.8-2.7H5c-0.1,0-0.1,0-0.1,0
				c-2.6,0-3.8,1.2-2.7,2.7l5.1,6.9l0,0"/>
			<path id="XMLID_159_" class="st1" d="M7.2,26.9l-5.1,6.9c-1.1,1.4,0.2,2.6,2.7,2.7c0,0,0.1,0,0.1,0h25.2c2.7,0,5.7-1.2,6.8-2.7
				l5.1-6.9"/>
		</g>
		<g id="XMLID_138_">
			<g id="XMLID_139_">
				<path id="XMLID_154_" class="st1" d="M84.2,35.4c0,1.3-0.2,2.5-0.5,3.5c-0.4,1-0.8,2-1.5,2.8c-0.6,0.8-1.4,1.5-2.2,2.1
					c-0.9,0.6-1.8,1.1-2.9,1.4c-1,0.4-2.2,0.6-3.3,0.8c-1.2,0.2-2.5,0.3-4,0.3h-9.6c-0.6,0-1.1-0.2-1.6-0.5c-0.4-0.4-0.6-1-0.6-1.8
					V12.4c0-0.8,0.2-1.4,0.6-1.8c0.4-0.4,0.9-0.5,1.6-0.5h9.1c2.2,0,4.1,0.2,5.6,0.6c1.5,0.4,2.8,0.9,3.9,1.7
					c1.1,0.8,1.9,1.7,2.4,2.9c0.6,1.2,0.8,2.5,0.8,4.1c0,0.9-0.1,1.7-0.3,2.5c-0.2,0.8-0.6,1.5-1,2.1c-0.4,0.6-1,1.2-1.6,1.7
					c-0.6,0.5-1.3,0.9-2.1,1.2c1,0.2,2,0.5,2.8,1c0.9,0.5,1.6,1.1,2.3,1.8c0.6,0.7,1.2,1.6,1.5,2.6C84,33,84.2,34.2,84.2,35.4z
					 M74.7,20.1c0-0.7-0.1-1.4-0.3-2c-0.2-0.6-0.6-1.1-1-1.4c-0.4-0.4-1-0.7-1.7-0.9c-0.7-0.2-1.6-0.3-2.7-0.3h-3.7V25h4.1
					c1.1,0,1.9-0.1,2.5-0.4c0.6-0.3,1.2-0.6,1.6-1c0.4-0.4,0.7-1,0.9-1.5C74.6,21.4,74.7,20.8,74.7,20.1z M76.6,35.6
					c0-0.8-0.1-1.6-0.4-2.3c-0.3-0.7-0.7-1.2-1.2-1.7c-0.5-0.4-1.2-0.8-2.1-1c-0.8-0.2-1.9-0.4-3.3-0.4h-4.4v10.3h5.3
					c1,0,1.9-0.1,2.6-0.3c0.7-0.2,1.3-0.5,1.8-1c0.5-0.4,0.9-0.9,1.2-1.6C76.4,37.2,76.6,36.4,76.6,35.6z"/>
				<path id="XMLID_151_" class="st1" d="M95,11.9c0,1.4-0.3,2.4-0.9,2.9c-0.6,0.5-1.7,0.8-3.2,0.8c-1.6,0-2.7-0.3-3.2-0.8
					c-0.6-0.5-0.8-1.5-0.8-2.8c0-1.4,0.3-2.4,0.9-3c0.6-0.6,1.6-0.8,3.2-0.8c1.6,0,2.6,0.3,3.2,0.8C94.7,9.6,95,10.5,95,11.9z
					 M94.4,45.3c0,0.2-0.1,0.3-0.2,0.5c-0.1,0.1-0.3,0.3-0.6,0.3c-0.3,0.1-0.6,0.2-1.1,0.2c-0.4,0-1,0.1-1.7,0.1
					c-0.7,0-1.3,0-1.7-0.1c-0.4,0-0.8-0.1-1.1-0.2c-0.3-0.1-0.5-0.2-0.6-0.3c-0.1-0.1-0.2-0.3-0.2-0.5V20.4c0-0.2,0.1-0.3,0.2-0.5
					c0.1-0.1,0.3-0.3,0.6-0.4c0.3-0.1,0.6-0.2,1.1-0.2c0.4-0.1,1-0.1,1.7-0.1c0.7,0,1.3,0,1.7,0.1c0.4,0.1,0.8,0.1,1.1,0.2
					c0.3,0.1,0.5,0.2,0.6,0.4c0.1,0.1,0.2,0.3,0.2,0.5V45.3z"/>
				<path id="XMLID_149_" class="st1" d="M138.9,45.3c0,0.2-0.1,0.3-0.2,0.5c-0.1,0.1-0.3,0.3-0.6,0.3c-0.3,0.1-0.6,0.2-1.1,0.2
					c-0.4,0-1,0.1-1.7,0.1c-0.7,0-1.3,0-1.7-0.1c-0.4,0-0.8-0.1-1.1-0.2c-0.3-0.1-0.5-0.2-0.6-0.3c-0.1-0.1-0.2-0.3-0.2-0.5V30.5
					c0-0.8-0.1-1.6-0.2-2.3c-0.2-0.7-0.4-1.3-0.7-1.8c-0.3-0.5-0.7-0.9-1.2-1.1c-0.5-0.3-1.1-0.4-1.8-0.4c-0.8,0-1.7,0.3-2.5,1
					c-0.9,0.7-1.8,1.6-2.8,2.9v16.6c0,0.2-0.1,0.3-0.2,0.5c-0.1,0.1-0.3,0.3-0.6,0.3c-0.3,0.1-0.6,0.2-1.1,0.2c-0.4,0-1,0.1-1.7,0.1
					c-0.7,0-1.3,0-1.7-0.1c-0.4,0-0.8-0.1-1.1-0.2c-0.3-0.1-0.5-0.2-0.6-0.3c-0.1-0.1-0.2-0.3-0.2-0.5V30.5c0-0.8-0.1-1.6-0.2-2.3
					c-0.2-0.7-0.4-1.3-0.7-1.8c-0.3-0.5-0.7-0.9-1.2-1.1c-0.5-0.3-1.1-0.4-1.8-0.4c-0.9,0-1.7,0.3-2.6,1c-0.9,0.7-1.8,1.6-2.8,2.9
					v16.6c0,0.2-0.1,0.3-0.2,0.5c-0.1,0.1-0.3,0.3-0.6,0.3c-0.3,0.1-0.6,0.2-1.1,0.2c-0.4,0-1,0.1-1.7,0.1c-0.7,0-1.3,0-1.7-0.1
					c-0.4,0-0.8-0.1-1.1-0.2c-0.3-0.1-0.5-0.2-0.6-0.3c-0.1-0.1-0.2-0.3-0.2-0.5v-25c0-0.2,0-0.3,0.1-0.5c0.1-0.1,0.3-0.3,0.5-0.3
					c0.2-0.1,0.6-0.2,0.9-0.2c0.4,0,0.9-0.1,1.4-0.1c0.6,0,1.1,0,1.5,0.1c0.4,0,0.7,0.1,0.9,0.2c0.2,0.1,0.4,0.2,0.5,0.3
					c0.1,0.1,0.1,0.3,0.1,0.5v2.9c1.4-1.5,2.8-2.6,4.1-3.4c1.4-0.7,2.8-1.1,4.3-1.1c1,0,1.9,0.1,2.8,0.3c0.8,0.2,1.6,0.5,2.2,0.9
					c0.6,0.4,1.2,0.9,1.7,1.4c0.5,0.6,0.9,1.2,1.2,1.9c0.7-0.8,1.5-1.5,2.2-2.1c0.7-0.6,1.4-1,2.1-1.4c0.7-0.4,1.4-0.6,2.1-0.8
					c0.7-0.2,1.4-0.3,2.1-0.3c1.7,0,3.1,0.3,4.2,0.8c1.1,0.6,2.1,1.3,2.8,2.3c0.7,1,1.2,2.1,1.5,3.4c0.3,1.3,0.4,2.6,0.4,4.1V45.3z"
					/>
				<path id="XMLID_140_" class="st1" d="M150.6,45.3c0,0.2-0.1,0.3-0.2,0.5c-0.1,0.1-0.3,0.3-0.6,0.3c-0.3,0.1-0.6,0.2-1.1,0.2
					c-0.4,0-1,0.1-1.7,0.1c-0.7,0-1.3,0-1.7-0.1c-0.4,0-0.8-0.1-1.1-0.2c-0.3-0.1-0.5-0.2-0.6-0.3c-0.1-0.1-0.2-0.3-0.2-0.5V8.5
					c0-0.2,0.1-0.4,0.2-0.5c0.1-0.1,0.3-0.3,0.6-0.4c0.3-0.1,0.6-0.2,1.1-0.2c0.4-0.1,1-0.1,1.7-0.1c0.7,0,1.3,0,1.7,0.1
					c0.4,0.1,0.8,0.1,1.1,0.2c0.3,0.1,0.5,0.2,0.6,0.4c0.1,0.2,0.2,0.3,0.2,0.5V45.3z"/>
			</g>
		</g>
		<g id="XMLID_120_">
			<path id="XMLID_136_" class="st1" d="M176.8,36.5c0,1.6-0.3,3.1-0.9,4.4c-0.6,1.3-1.4,2.4-2.5,3.3c-1.1,0.9-2.3,1.6-3.8,2.1
				c-1.5,0.5-3,0.7-4.8,0.7c-1.2,0-2.3-0.1-3.3-0.3c-1-0.2-2-0.5-2.8-0.8c-0.8-0.3-1.5-0.6-2.1-0.9c-0.6-0.3-0.9-0.6-1.1-0.8
				c-0.2-0.2-0.4-0.5-0.5-0.8c-0.1-0.3-0.1-0.7-0.1-1.1c0-0.3,0-0.6,0.1-0.8c0-0.2,0.1-0.4,0.2-0.5c0.1-0.1,0.2-0.2,0.3-0.3
				c0.1,0,0.2-0.1,0.3-0.1c0.3,0,0.6,0.2,1.1,0.5c0.5,0.3,1.1,0.7,1.9,1.1c0.8,0.4,1.7,0.7,2.8,1.1c1.1,0.3,2.3,0.5,3.7,0.5
				c1.2,0,2.2-0.2,3.2-0.5c1-0.3,1.8-0.8,2.5-1.3c0.7-0.6,1.2-1.3,1.6-2.2c0.4-0.9,0.6-1.8,0.6-2.9c0-1.1-0.2-2.1-0.7-2.9
				c-0.5-0.8-1.1-1.5-1.9-2.1c-0.8-0.6-1.7-1.2-2.7-1.7s-2.1-1-3.1-1.5c-1.1-0.5-2.1-1-3.1-1.6c-1-0.6-1.9-1.3-2.7-2.1
				c-0.8-0.8-1.5-1.7-1.9-2.8c-0.5-1.1-0.7-2.3-0.7-3.8c0-1.4,0.3-2.7,0.8-3.8c0.5-1.1,1.2-2.1,2.2-2.9c0.9-0.8,2-1.4,3.3-1.8
				c1.3-0.4,2.7-0.6,4.3-0.6c0.8,0,1.6,0.1,2.4,0.2c0.8,0.2,1.5,0.3,2.3,0.6c0.7,0.2,1.3,0.5,1.9,0.8c0.6,0.3,0.9,0.5,1.1,0.7
				c0.2,0.2,0.3,0.3,0.3,0.4c0,0.1,0.1,0.2,0.1,0.3c0,0.1,0.1,0.3,0.1,0.5c0,0.2,0,0.4,0,0.7c0,0.2,0,0.5,0,0.7
				c0,0.2-0.1,0.4-0.1,0.5c-0.1,0.1-0.1,0.3-0.2,0.3c-0.1,0.1-0.2,0.1-0.3,0.1c-0.2,0-0.5-0.1-0.9-0.4c-0.4-0.3-1-0.6-1.6-0.9
				c-0.6-0.3-1.4-0.6-2.3-0.9c-0.9-0.3-1.9-0.4-3-0.4c-1.1,0-2.1,0.2-2.9,0.5c-0.8,0.3-1.5,0.7-2.1,1.2c-0.5,0.5-1,1.1-1.2,1.8
				c-0.3,0.7-0.4,1.4-0.4,2.2c0,1.1,0.2,2.1,0.7,2.9c0.5,0.8,1.1,1.5,2,2.2c0.8,0.6,1.7,1.2,2.8,1.7c1,0.5,2.1,1,3.1,1.5
				c1.1,0.5,2.1,1,3.1,1.6c1,0.6,2,1.3,2.8,2c0.8,0.8,1.5,1.7,2,2.8C176.5,33.8,176.8,35,176.8,36.5z"/>
			<path id="XMLID_134_" class="st1" d="M195.5,44.3c0,0.4,0,0.7-0.1,1c-0.1,0.2-0.2,0.4-0.3,0.6c-0.1,0.1-0.4,0.3-0.6,0.4
				c-0.3,0.1-0.6,0.2-0.9,0.3c-0.4,0.1-0.7,0.2-1.1,0.2c-0.4,0-0.8,0.1-1.2,0.1c-1.3,0-2.3-0.2-3.2-0.5c-0.9-0.3-1.6-0.9-2.2-1.5
				s-1-1.6-1.2-2.6c-0.3-1.1-0.4-2.3-0.4-3.7v-16h-3.8c-0.3,0-0.5-0.1-0.6-0.4c-0.2-0.2-0.2-0.6-0.2-1.1c0-0.2,0-0.5,0.1-0.6
				c0-0.2,0.1-0.3,0.2-0.5c0.1-0.1,0.2-0.2,0.3-0.3c0.1-0.1,0.2-0.1,0.4-0.1h3.8v-6.3c0-0.1,0-0.2,0.1-0.3c0-0.1,0.1-0.2,0.3-0.2
				c0.1-0.1,0.3-0.1,0.5-0.1s0.5,0,0.8,0c0.3,0,0.6,0,0.8,0s0.4,0.1,0.5,0.1c0.1,0.1,0.2,0.1,0.3,0.2c0.1,0.1,0.1,0.2,0.1,0.3v6.3
				h7.1c0.1,0,0.3,0,0.4,0.1c0.1,0.1,0.2,0.1,0.3,0.3c0.1,0.1,0.1,0.3,0.2,0.5c0,0.2,0.1,0.4,0.1,0.6c0,0.5-0.1,0.8-0.2,1.1
				c-0.2,0.2-0.4,0.4-0.6,0.4h-7.1V38c0,1.9,0.3,3.4,0.8,4.5c0.6,1,1.6,1.5,3,1.5c0.5,0,0.9,0,1.2-0.1c0.4-0.1,0.7-0.2,1-0.3
				c0.3-0.1,0.5-0.2,0.7-0.3c0.2-0.1,0.4-0.1,0.5-0.1c0.1,0,0.2,0,0.3,0.1c0.1,0,0.1,0.1,0.2,0.2c0,0.1,0.1,0.2,0.1,0.4
				C195.4,43.9,195.5,44.1,195.5,44.3z"/>
			<path id="XMLID_132_" class="st1" d="M222.1,45.8c0,0.1,0,0.2-0.1,0.3c0,0.1-0.1,0.2-0.3,0.2s-0.3,0.1-0.5,0.1
				c-0.2,0-0.5,0.1-0.8,0.1c-0.3,0-0.6,0-0.8-0.1c-0.2,0-0.4-0.1-0.5-0.1c-0.1-0.1-0.2-0.1-0.2-0.2c0-0.1-0.1-0.2-0.1-0.3v-3.6
				c-1.5,1.6-2.9,2.8-4.3,3.6c-1.4,0.7-2.8,1.1-4.2,1.1c-1.7,0-3.1-0.3-4.3-0.9c-1.2-0.6-2.1-1.3-2.8-2.3c-0.7-1-1.2-2.1-1.5-3.4
				c-0.3-1.3-0.5-2.8-0.5-4.7V20.2c0-0.1,0-0.2,0.1-0.3c0-0.1,0.1-0.2,0.3-0.2s0.3-0.1,0.5-0.1c0.2,0,0.5,0,0.8,0c0.3,0,0.6,0,0.8,0
				c0.2,0,0.4,0.1,0.5,0.1c0.1,0.1,0.2,0.1,0.3,0.2c0.1,0.1,0.1,0.2,0.1,0.3v15.2c0,1.6,0.1,2.9,0.4,3.9c0.2,1,0.6,1.9,1.1,2.6
				c0.5,0.7,1.1,1.3,1.9,1.6c0.8,0.4,1.7,0.6,2.7,0.6c1.3,0,2.6-0.5,3.9-1.4c1.3-0.9,2.7-2.3,4.1-4.1V20.2c0-0.1,0-0.2,0.1-0.3
				c0-0.1,0.1-0.2,0.3-0.2s0.3-0.1,0.5-0.1c0.2,0,0.5,0,0.8,0c0.3,0,0.6,0,0.8,0c0.2,0,0.4,0.1,0.5,0.1c0.1,0.1,0.2,0.1,0.3,0.2
				c0.1,0.1,0.1,0.2,0.1,0.3V45.8z"/>
			<path id="XMLID_129_" class="st1" d="M251.6,45.8c0,0.1,0,0.2-0.1,0.3c0,0.1-0.1,0.2-0.3,0.2c-0.1,0.1-0.3,0.1-0.5,0.1
				c-0.2,0-0.4,0-0.7,0c-0.3,0-0.6,0-0.8,0c-0.2,0-0.4-0.1-0.5-0.1c-0.1-0.1-0.2-0.1-0.3-0.2c-0.1-0.1-0.1-0.2-0.1-0.3v-3.7
				c-1.4,1.5-2.8,2.6-4.2,3.5c-1.5,0.8-3,1.3-4.8,1.3c-1.9,0-3.4-0.4-4.7-1.1c-1.3-0.7-2.4-1.7-3.2-2.9c-0.8-1.2-1.4-2.7-1.8-4.3
				c-0.4-1.7-0.6-3.4-0.6-5.3c0-2.2,0.2-4.1,0.7-5.9c0.5-1.7,1.2-3.2,2.1-4.5c0.9-1.2,2.1-2.2,3.4-2.8c1.4-0.7,2.9-1,4.7-1
				c1.5,0,3,0.3,4.3,1c1.3,0.7,2.6,1.7,3.8,3V7.7c0-0.1,0-0.2,0.1-0.3c0-0.1,0.1-0.2,0.3-0.2c0.1-0.1,0.3-0.1,0.5-0.1
				c0.2,0,0.5-0.1,0.8-0.1c0.3,0,0.6,0,0.8,0.1c0.2,0,0.4,0.1,0.5,0.1c0.1,0.1,0.2,0.1,0.3,0.2c0.1,0.1,0.1,0.2,0.1,0.3V45.8z
				 M248.2,27.3c-1.4-1.7-2.8-3-4.1-3.9c-1.3-0.9-2.7-1.4-4.1-1.4c-1.3,0-2.4,0.3-3.3,0.9c-0.9,0.6-1.7,1.4-2.3,2.5
				c-0.6,1-1,2.2-1.3,3.5c-0.3,1.3-0.4,2.6-0.4,3.9c0,1.4,0.1,2.8,0.3,4.1c0.2,1.3,0.6,2.5,1.2,3.6c0.5,1,1.3,1.9,2.2,2.5
				c0.9,0.6,2,0.9,3.4,0.9c0.7,0,1.3-0.1,2-0.3c0.6-0.2,1.3-0.5,2-0.9c0.7-0.4,1.4-1,2.1-1.7s1.5-1.5,2.3-2.6V27.3z"/>
			<path id="XMLID_125_" class="st1" d="M264.2,11.5c0,0.9-0.2,1.5-0.5,1.8c-0.3,0.3-0.9,0.5-1.8,0.5c-0.8,0-1.4-0.2-1.7-0.5
				c-0.3-0.3-0.5-0.9-0.5-1.8c0-0.9,0.2-1.5,0.5-1.8c0.3-0.3,0.9-0.5,1.8-0.5c0.8,0,1.4,0.2,1.7,0.5C264,10,264.2,10.6,264.2,11.5z
				 M263.6,45.8c0,0.1,0,0.2-0.1,0.3c-0.1,0.1-0.1,0.2-0.3,0.2c-0.1,0.1-0.3,0.1-0.5,0.1s-0.5,0.1-0.8,0.1c-0.3,0-0.6,0-0.8-0.1
				s-0.4-0.1-0.5-0.1c-0.1-0.1-0.2-0.1-0.3-0.2c0-0.1-0.1-0.2-0.1-0.3V20.2c0-0.1,0-0.2,0.1-0.3c0-0.1,0.1-0.2,0.3-0.2
				c0.1-0.1,0.3-0.1,0.5-0.1s0.5,0,0.8,0c0.3,0,0.6,0,0.8,0s0.4,0.1,0.5,0.1c0.1,0.1,0.2,0.1,0.3,0.2c0.1,0.1,0.1,0.2,0.1,0.3V45.8z
				"/>
			<path id="XMLID_122_" class="st1" d="M295.1,32.7c0,2-0.3,3.9-0.8,5.6s-1.3,3.2-2.4,4.5c-1.1,1.3-2.4,2.3-3.9,3
				c-1.6,0.7-3.4,1.1-5.5,1.1c-2,0-3.8-0.3-5.3-0.9s-2.8-1.5-3.8-2.7c-1-1.2-1.8-2.6-2.3-4.3c-0.5-1.7-0.8-3.6-0.8-5.7
				c0-2,0.3-3.9,0.8-5.6s1.3-3.2,2.4-4.5c1.1-1.3,2.4-2.2,3.9-2.9c1.6-0.7,3.4-1,5.5-1c2,0,3.8,0.3,5.3,0.9c1.5,0.6,2.8,1.5,3.8,2.7
				c1,1.2,1.8,2.6,2.3,4.3C294.8,28.7,295.1,30.6,295.1,32.7z M291.5,33c0-1.5-0.1-2.8-0.4-4.2c-0.3-1.3-0.8-2.5-1.4-3.5
				c-0.7-1-1.6-1.8-2.7-2.4c-1.1-0.6-2.5-0.9-4.2-0.9c-1.5,0-2.9,0.3-4,0.8c-1.1,0.5-2,1.3-2.7,2.3c-0.7,1-1.2,2.1-1.6,3.4
				c-0.3,1.3-0.5,2.8-0.5,4.3c0,1.5,0.1,2.9,0.4,4.2c0.3,1.3,0.8,2.5,1.4,3.5c0.7,1,1.6,1.8,2.7,2.4c1.1,0.6,2.5,0.9,4.2,0.9
				c1.5,0,2.9-0.3,4-0.8c1.1-0.5,2-1.3,2.7-2.3c0.7-1,1.2-2.1,1.6-3.4C291.3,36,291.5,34.6,291.5,33z"/>
		</g>
	</g>
</g>
</svg>
